<?xml version="1.0" encoding="UTF-8" standalone="no"?>
<!-- Created with Inkscape (http://www.inkscape.org/) -->

<svg
   xmlns:dc="http://purl.org/dc/elements/1.1/"
   xmlns:cc="http://creativecommons.org/ns#"
   xmlns:rdf="http://www.w3.org/1999/02/22-rdf-syntax-ns#"
   xmlns:svg="http://www.w3.org/2000/svg"
   xmlns="http://www.w3.org/2000/svg"
   xmlns:sodipodi="http://sodipodi.sourceforge.net/DTD/sodipodi-0.dtd"
   xmlns:inkscape="http://www.inkscape.org/namespaces/inkscape"
   width="95.646873mm"
   height="143.27187mm"
   viewBox="0 0 95.646873 143.27187"
   version="1.1"
   id="svg14176"
   inkscape:version="0.92.3 (2405546, 2018-03-11)"
   sodipodi:docname="7D.svg">
  <defs
     id="defs14170">
    <inkscape:path-effect
       effect="spiro"
       id="path-effect17935-89"
       is_visible="true" />
    <inkscape:path-effect
       effect="spiro"
       id="path-effect17939-8"
       is_visible="true" />
    <inkscape:path-effect
       effect="spiro"
       id="path-effect17935-8-7"
       is_visible="true" />
    <inkscape:path-effect
       effect="spiro"
       id="path-effect17939-6-0"
       is_visible="true" />
    <inkscape:path-effect
       effect="spiro"
       id="path-effect17935-9-8-2-5-09-4-0"
       is_visible="true" />
    <inkscape:path-effect
       effect="spiro"
       id="path-effect17935-9-8-2-5-09-4-1-8"
       is_visible="true" />
  </defs>
  <sodipodi:namedview
     id="base"
     pagecolor="#ffffff"
     bordercolor="#666666"
     borderopacity="1.0"
     inkscape:pageopacity="0.0"
     inkscape:pageshadow="2"
     inkscape:zoom="0.35"
     inkscape:cx="86.749982"
     inkscape:cy="342.46426"
     inkscape:document-units="mm"
     inkscape:current-layer="layer1"
     showgrid="false"
     inkscape:window-width="653"
     inkscape:window-height="429"
     inkscape:window-x="848"
     inkscape:window-y="41"
     inkscape:window-maximized="0"
     inkscape:pagecheckerboard="true"
     fit-margin-top="0"
     fit-margin-left="0"
     fit-margin-right="0"
     fit-margin-bottom="0" />
  <metadata
     id="metadata14173">
    <rdf:RDF>
      <cc:Work
         rdf:about="">
        <dc:format>image/svg+xml</dc:format>
        <dc:type
           rdf:resource="http://purl.org/dc/dcmitype/StillImage" />
        <dc:title></dc:title>
      </cc:Work>
    </rdf:RDF>
  </metadata>
  <g
     inkscape:label="Layer 1"
     inkscape:groupmode="layer"
     id="layer1"
     style="opacity:1"
     transform="translate(14.259153,-96.171556)">
    <g
       style="display:inline"
       transform="matrix(0.26458333,0,0,0.26458333,-14.060716,-39.192499)"
       id="g3092">
      <rect
         rx="29.944447"
         ry="29.944447"
         y="512.86218"
         x="0.5"
         height="539"
         width="359"
         id="rect6472-39"
         style="fill:#ffffff;stroke:#000000;stroke-width:2.5;stroke-miterlimit:4;stroke-dasharray:none" />
      <path
         style="fill:#ff5555;fill-opacity:1;stroke:none"
         id="rect3980-2-1-93-8"
         d="m 20,542.36208 v 5 5 h 5 v -5 h 10 l -10,45 h 5 l 10,-45 v -5 z"
         inkscape:connector-curvature="0" />
      <path
         style="fill:#ff5555;fill-opacity:1;stroke:none"
         id="rect3980-2-1-93-0-80"
         d="m 340,1022.3622 v -5 -5 h -5 v 5 h -10 l 10,-45.00004 h -5 l -10,45.00004 v 5 z"
         inkscape:connector-curvature="0" />
      <path
         sodipodi:nodetypes="czczczczc"
         inkscape:connector-curvature="0"
         id="path3204-24-1-8"
         d="m 30,602.36218 c 0,0 3,7.5 6.5,12.5 3.5,5 8.5,10 8.5,10 0,0 -5,5 -8.5,10 -3.5,5 -6.5,12.5 -6.5,12.5 0,0 -3,-7.5 -6.5,-12.5 -3.5,-5 -8.5,-10 -8.5,-10 0,0 5,-5 8.5,-10 3.5,-5 6.5,-12.5 6.5,-12.5"
         style="fill:#ff5555;stroke:none" />
      <path
         sodipodi:nodetypes="czczczczc"
         inkscape:connector-curvature="0"
         id="path3204-24-1-1-7"
         d="m 330,917.36218 c 0,0 3,7.5 6.5,12.5 3.5,5 8.5,10 8.5,10 0,0 -5,5 -8.5,10 -3.5,5 -6.5,12.5 -6.5,12.5 0,0 -3,-7.5 -6.5,-12.5 -3.5,-5 -8.5,-10 -8.5,-10 0,0 5,-5 8.5,-10 3.5,-5 6.5,-12.5 6.5,-12.5"
         style="fill:#ff5555;stroke:none" />
      <path
         sodipodi:nodetypes="czczczczc"
         inkscape:connector-curvature="0"
         id="path3204-24-9-7"
         d="m 90,557.36218 c 0,0 6,15 13,25 7,10 17,20 17,20 0,0 -10,10 -17,20 -7,10 -13,25 -13,25 0,0 -6,-15 -13,-25 -7,-10 -17,-20 -17,-20 0,0 10,-10 17,-20 7,-10 13,-25 13,-25"
         style="fill:#ff5555;stroke:none" />
      <path
         sodipodi:nodetypes="czczczczc"
         inkscape:connector-curvature="0"
         id="path3204-24-4-83"
         d="m 270,557.36218 c 0,0 6,15 13,25 7,10 17,20 17,20 0,0 -10,10 -17,20 -7,10 -13,25 -13,25 0,0 -6,-15 -13,-25 -7,-10 -17,-20 -17,-20 0,0 10,-10 17,-20 7,-10 13,-25 13,-25"
         style="fill:#ff5555;stroke:none" />
      <path
         sodipodi:nodetypes="czczczczc"
         inkscape:connector-curvature="0"
         id="path3204-24-8-8"
         d="m 180,647.36218 c 0,0 6,15 13,25 7,10 17,20 17,20 0,0 -10,10 -17,20 -7,10 -13,25 -13,25 0,0 -6,-15 -13,-25 -7,-10 -17,-20 -17,-20 0,0 10,-10 17,-20 7,-10 13,-25 13,-25"
         style="fill:#ff5555;stroke:none" />
      <path
         sodipodi:nodetypes="czczczczc"
         inkscape:connector-curvature="0"
         id="path3204-24-37"
         d="m 90,737.36218 c 0,0 6,15 13,25 7,10 17,20 17,20 0,0 -10,10 -17,20 -7,10 -13,25 -13,25 0,0 -6,-15 -13,-25 -7,-10 -17,-20 -17,-20 0,0 10,-10 17,-20 7,-10 13,-25 13,-25"
         style="fill:#ff5555;stroke:none" />
      <path
         sodipodi:nodetypes="czczczczc"
         inkscape:connector-curvature="0"
         id="path3204-24-82"
         d="m 270,737.36218 c 0,0 6,15 13,25 7,10 17,20 17,20 0,0 -10,10 -17,20 -7,10 -13,25 -13,25 0,0 -6,-15 -13,-25 -7,-10 -17,-20 -17,-20 0,0 10,-10 17,-20 7,-10 13,-25 13,-25"
         style="fill:#ff5555;stroke:none" />
      <path
         sodipodi:nodetypes="czczczczc"
         inkscape:connector-curvature="0"
         id="path3204-24-45-1"
         d="m 90,917.36218 c 0,0 6,15 13,25 7,10 17,20 17,20 0,0 -10,10 -17,20 -7,10 -13,25.00002 -13,25.00002 0,0 -6,-15.00002 -13,-25.00002 -7,-10 -17,-20 -17,-20 0,0 10,-10 17,-20 7,-10 13,-25 13,-25"
         style="fill:#ff5555;stroke:none" />
      <path
         sodipodi:nodetypes="czczczczc"
         inkscape:connector-curvature="0"
         id="path3204-24-5"
         d="m 270,917.36218 c 0,0 6,15 13,25 7,10 17,20 17,20 0,0 -10,10 -17,20 -7,10 -13,25.00002 -13,25.00002 0,0 -6,-15.00002 -13,-25.00002 -7,-10 -17,-20 -17,-20 0,0 10,-10 17,-20 7,-10 13,-25 13,-25"
         style="fill:#ff5555;stroke:none" />
    </g>
  </g>
</svg>
