<?xml version="1.0" encoding="UTF-8" standalone="no"?>
<!-- Created with Inkscape (http://www.inkscape.org/) -->

<svg
   xmlns:dc="http://purl.org/dc/elements/1.1/"
   xmlns:cc="http://creativecommons.org/ns#"
   xmlns:rdf="http://www.w3.org/1999/02/22-rdf-syntax-ns#"
   xmlns:svg="http://www.w3.org/2000/svg"
   xmlns="http://www.w3.org/2000/svg"
   xmlns:sodipodi="http://sodipodi.sourceforge.net/DTD/sodipodi-0.dtd"
   xmlns:inkscape="http://www.inkscape.org/namespaces/inkscape"
   width="95.646873mm"
   height="143.27187mm"
   viewBox="0 0 95.646873 143.27187"
   version="1.1"
   id="svg14176"
   inkscape:version="0.92.3 (2405546, 2018-03-11)"
   sodipodi:docname="8D.svg">
  <defs
     id="defs14170">
    <inkscape:path-effect
       effect="spiro"
       id="path-effect17935-89"
       is_visible="true" />
    <inkscape:path-effect
       effect="spiro"
       id="path-effect17939-8"
       is_visible="true" />
    <inkscape:path-effect
       effect="spiro"
       id="path-effect17935-8-7"
       is_visible="true" />
    <inkscape:path-effect
       effect="spiro"
       id="path-effect17939-6-0"
       is_visible="true" />
    <inkscape:path-effect
       effect="spiro"
       id="path-effect17935-9-8-2-5-09-4-0"
       is_visible="true" />
    <inkscape:path-effect
       effect="spiro"
       id="path-effect17935-9-8-2-5-09-4-1-8"
       is_visible="true" />
  </defs>
  <sodipodi:namedview
     id="base"
     pagecolor="#ffffff"
     bordercolor="#666666"
     borderopacity="1.0"
     inkscape:pageopacity="0.0"
     inkscape:pageshadow="2"
     inkscape:zoom="0.35"
     inkscape:cx="-78.214307"
     inkscape:cy="178.92854"
     inkscape:document-units="mm"
     inkscape:current-layer="layer1"
     showgrid="false"
     inkscape:window-width="653"
     inkscape:window-height="429"
     inkscape:window-x="848"
     inkscape:window-y="41"
     inkscape:window-maximized="0"
     inkscape:pagecheckerboard="true"
     fit-margin-top="0"
     fit-margin-left="0"
     fit-margin-right="0"
     fit-margin-bottom="0" />
  <metadata
     id="metadata14173">
    <rdf:RDF>
      <cc:Work
         rdf:about="">
        <dc:format>image/svg+xml</dc:format>
        <dc:type
           rdf:resource="http://purl.org/dc/dcmitype/StillImage" />
        <dc:title></dc:title>
      </cc:Work>
    </rdf:RDF>
  </metadata>
  <g
     inkscape:label="Layer 1"
     inkscape:groupmode="layer"
     id="layer1"
     style="opacity:1"
     transform="translate(-29.387649,-52.902723)">
    <g
       style="display:inline"
       transform="matrix(0.26458333,0,0,0.26458333,29.586086,-82.461332)"
       id="g2996">
      <rect
         rx="29.944447"
         ry="29.944447"
         y="512.86218"
         x="0.5"
         height="539"
         width="359"
         id="rect6472-0"
         style="fill:#ffffff;stroke:#000000;stroke-width:2.5;stroke-miterlimit:4;stroke-dasharray:none" />
      <path
         style="fill:#ff5555;fill-opacity:1;stroke:none"
         id="rect3163-5-18-0-7-9"
         d="m 30,542.36208 c -5.54,0 -10,4.46 -10,10 v 5 c 0,3.0036 1.323,5.67 3.4063,7.5 -2.0833,1.83 -3.4063,4.4964 -3.4063,7.5 v 10 c 0,5.54 4.46,10 10,10 5.54,0 10,-4.46 10,-10 v -10 c 0,-3.0036 -1.323,-5.67 -3.4062,-7.5 2.0832,-1.83 3.4062,-4.4964 3.4062,-7.5 v -5 c 0,-5.54 -4.46,-10 -10,-10 z m 0,5 c 2.77,0 5,2.23 5,5 v 5 c 0,2.77 -2.23,5 -5,5 -2.77,0 -5,-2.23 -5,-5 v -5 c 0,-2.77 2.23,-5 5,-5 z m 0,20 c 2.77,0 5,2.23 5,5 v 10 c 0,2.77 -2.23,5 -5,5 -2.77,0 -5,-2.23 -5,-5 v -10 c 0,-2.77 2.23,-5 5,-5 z"
         inkscape:connector-curvature="0" />
      <path
         style="fill:#ff5555;fill-opacity:1;stroke:none"
         id="rect3163-5-18-0-7-4-7"
         d="m 330,1022.3621 c -5.54,0 -10,-4.46 -10,-10 v -5 c 0,-3.0036 1.323,-5.67 3.4063,-7.5 C 321.323,998.0321 320,995.3657 320,992.36208 v -10 c 0,-5.54 4.46,-10 10,-10 5.54,0 10,4.46 10,10 v 10 c 0,3.00362 -1.323,5.67002 -3.4062,7.50002 2.0832,1.83 3.4062,4.4964 3.4062,7.5 v 5 c 0,5.54 -4.46,10 -10,10 z m 0,-5 c 2.77,0 5,-2.23 5,-5 v -5 c 0,-2.77 -2.23,-5 -5,-5 -2.77,0 -5,2.23 -5,5 v 5 c 0,2.77 2.23,5 5,5 z m 0,-20 c 2.77,0 5,-2.23 5,-5.00002 v -10 c 0,-2.77 -2.23,-5 -5,-5 -2.77,0 -5,2.23 -5,5 v 10 c 0,2.77002 2.23,5.00002 5,5.00002 z"
         inkscape:connector-curvature="0" />
      <path
         sodipodi:nodetypes="czczczczc"
         inkscape:connector-curvature="0"
         id="path3204-24-1-3"
         d="m 90,557.36218 c 0,0 6,15 13,25 7,10 17,20 17,20 0,0 -10,10 -17,20 -7,10 -13,25 -13,25 0,0 -6,-15 -13,-25 -7,-10 -17,-20 -17,-20 0,0 10,-10 17,-20 7,-10 13,-25 13,-25"
         style="fill:#ff5555;stroke:none" />
      <path
         sodipodi:nodetypes="czczczczc"
         inkscape:connector-curvature="0"
         id="path3204-24-7-7"
         d="m 270,557.36218 c 0,0 6,15 13,25 7,10 17,20 17,20 0,0 -10,10 -17,20 -7,10 -13,25 -13,25 0,0 -6,-15 -13,-25 -7,-10 -17,-20 -17,-20 0,0 10,-10 17,-20 7,-10 13,-25 13,-25"
         style="fill:#ff5555;stroke:none" />
      <path
         sodipodi:nodetypes="czczczczc"
         inkscape:connector-curvature="0"
         id="path3204-24-4-2"
         d="m 180,647.36218 c 0,0 6,15 13,25 7,10 17,20 17,20 0,0 -10,10 -17,20 -7,10 -13,25 -13,25 0,0 -6,-15 -13,-25 -7,-10 -17,-20 -17,-20 0,0 10,-10 17,-20 7,-10 13,-25 13,-25"
         style="fill:#ff5555;stroke:none" />
      <path
         sodipodi:nodetypes="czczczczc"
         inkscape:connector-curvature="0"
         id="path3204-24-6"
         d="m 90,737.36218 c 0,0 6,15 13,25 7,10 17,20 17,20 0,0 -10,10 -17,20 -7,10 -13,25 -13,25 0,0 -6,-15 -13,-25 -7,-10 -17,-20 -17,-20 0,0 10,-10 17,-20 7,-10 13,-25 13,-25"
         style="fill:#ff5555;stroke:none" />
      <path
         sodipodi:nodetypes="czczczczc"
         inkscape:connector-curvature="0"
         id="path3204-24-0-0"
         d="m 270,737.36218 c 0,0 6,15 13,25 7,10 17,20 17,20 0,0 -10,10 -17,20 -7,10 -13,25 -13,25 0,0 -6,-15 -13,-25 -7,-10 -17,-20 -17,-20 0,0 10,-10 17,-20 7,-10 13,-25 13,-25"
         style="fill:#ff5555;stroke:none" />
      <path
         sodipodi:nodetypes="czczczczc"
         inkscape:connector-curvature="0"
         id="path3204-24-9-1"
         d="m 180,827.36218 c 0,0 6,15 13,25 7,10 17,20 17,20 0,0 -10,10 -17,20 -7,10 -13,25 -13,25 0,0 -6,-15 -13,-25 -7,-10 -17,-20 -17,-20 0,0 10,-10 17,-20 7,-10 13,-25 13,-25"
         style="fill:#ff5555;stroke:none" />
      <path
         sodipodi:nodetypes="czczczczc"
         inkscape:connector-curvature="0"
         id="path3204-24-48-6"
         d="m 90,917.36218 c 0,0 6,15 13,25 7,10 17,20 17,20 0,0 -10,10 -17,20 -7,10 -13,25.00002 -13,25.00002 0,0 -6,-15.00002 -13,-25.00002 -7,-10 -17,-20 -17,-20 0,0 10,-10 17,-20 7,-10 13,-25 13,-25"
         style="fill:#ff5555;stroke:none" />
      <path
         sodipodi:nodetypes="czczczczc"
         inkscape:connector-curvature="0"
         id="path3204-24-8-5"
         d="m 270,917.36218 c 0,0 6,15 13,25 7,10 17,20 17,20 0,0 -10,10 -17,20 -7,10 -13,25.00002 -13,25.00002 0,0 -6,-15.00002 -13,-25.00002 -7,-10 -17,-20 -17,-20 0,0 10,-10 17,-20 7,-10 13,-25 13,-25"
         style="fill:#ff5555;stroke:none" />
      <path
         sodipodi:nodetypes="czczczczc"
         inkscape:connector-curvature="0"
         id="path3204-24-1-2"
         d="m 30,602.36218 c 0,0 3,7.5 6.5,12.5 3.5,5 8.5,10 8.5,10 0,0 -5,5 -8.5,10 -3.5,5 -6.5,12.5 -6.5,12.5 0,0 -3,-7.5 -6.5,-12.5 -3.5,-5 -8.5,-10 -8.5,-10 0,0 5,-5 8.5,-10 3.5,-5 6.5,-12.5 6.5,-12.5"
         style="fill:#ff5555;stroke:none" />
      <path
         sodipodi:nodetypes="czczczczc"
         inkscape:connector-curvature="0"
         id="path3204-24-1-4"
         d="m 330,917.36218 c 0,0 3,7.5 6.5,12.5 3.5,5 8.5,10 8.5,10 0,0 -5,5 -8.5,10 -3.5,5 -6.5,12.5 -6.5,12.5 0,0 -3,-7.5 -6.5,-12.5 -3.5,-5 -8.5,-10 -8.5,-10 0,0 5,-5 8.5,-10 3.5,-5 6.5,-12.5 6.5,-12.5"
         style="fill:#ff5555;stroke:none" />
    </g>
  </g>
</svg>
