<?xml version="1.0" encoding="UTF-8" standalone="no"?>
<!-- Creator: CorelDRAW -->

<svg
   xmlns:dc="http://purl.org/dc/elements/1.1/"
   xmlns:cc="http://creativecommons.org/ns#"
   xmlns:rdf="http://www.w3.org/1999/02/22-rdf-syntax-ns#"
   xmlns:svg="http://www.w3.org/2000/svg"
   xmlns="http://www.w3.org/2000/svg"
   xmlns:sodipodi="http://sodipodi.sourceforge.net/DTD/sodipodi-0.dtd"
   xmlns:inkscape="http://www.inkscape.org/namespaces/inkscape"
   xml:space="preserve"
   width="200.0762mm"
   height="168.1042mm"
   style="clip-rule:evenodd;fill-rule:evenodd;image-rendering:optimizeQuality;shape-rendering:geometricPrecision;text-rendering:geometricPrecision"
   viewBox="0 0 200.0762 168.1042"
   version="1.1"
   id="svg32"
   sodipodi:docname="orn.svg"
   inkscape:version="0.92.3 (2405546, 2018-03-11)"><metadata
   id="metadata36"><rdf:RDF><cc:Work
       rdf:about=""><dc:format>image/svg+xml</dc:format><dc:type
         rdf:resource="http://purl.org/dc/dcmitype/StillImage" /><dc:title /></cc:Work></rdf:RDF></metadata><sodipodi:namedview
   pagecolor="#ffffff"
   bordercolor="#666666"
   borderopacity="1"
   objecttolerance="10"
   gridtolerance="10"
   guidetolerance="10"
   inkscape:pageopacity="0"
   inkscape:pageshadow="2"
   inkscape:window-width="1366"
   inkscape:window-height="715"
   id="namedview34"
   showgrid="false"
   fit-margin-top="0"
   fit-margin-left="0"
   fit-margin-right="0"
   fit-margin-bottom="0"
   inkscape:zoom="0.33589188"
   inkscape:cx="1144.0718"
   inkscape:cy="290.1575"
   inkscape:window-x="-8"
   inkscape:window-y="-8"
   inkscape:window-maximized="1"
   inkscape:current-layer="svg32" />
 <defs
   id="defs26">
  <style
   type="text/css"
   id="style24">
   <![CDATA[
    .str0 {stroke:#1F1A17;stroke-width:0.0762}
    .fil0 {fill:#1F1A17}
   ]]>
  </style>
 </defs>
 <g
   id="Layer_x0020_1"
   transform="translate(-2.4619,-5.9479)">
  <metadata
   id="CorelCorpID_0Corel-Layer" />
  <path
   class="fil0 str0"
   d="m 64.577,41.2252 c 0.311,-2.4894 1.556,-4.4731 3.734,-5.951 2.178,-1.4779 4.5898,-1.906 7.2345,-1.2835 2.4895,0.311 4.5117,1.5945 6.0677,3.8506 1.556,2.2561 2.1003,4.7065 1.6336,7.3512 -0.4668,2.6448 -1.4779,4.8232 -3.0338,6.5345 -1.556,1.7112 -3.5783,3.1895 -6.0677,4.434 -3.5782,1.867 -7.3903,2.8005 -11.4353,2.8005 -5.7566,0 -10.6575,-1.9446 -14.7024,-5.8343 -2.3337,-2.0227 -4.3174,-4.7841 -5.951,-8.2847 -1.6336,-3.5006 -2.4504,-7.1179 -2.4504,-10.8518 0,-8.4014 3.4229,-15.1692 10.2684,-20.3034 C 56.72,8.5531 64.888,5.986 74.3786,5.986 c 9.4907,0 17.3472,3.3449 23.5706,10.035 6.2235,6.6902 9.3349,14.7025 9.3349,24.0373 0,1.867 -0.039,3.5006 -0.1167,4.9009 -0.0776,1.4002 -0.5057,3.1114 -1.2835,5.1342 l 14.7024,-12.3688 c 3.5783,-2.9562 7.9347,-4.434 13.0689,-4.434 4.9784,0 9.0239,1.5945 12.1354,4.7841 3.1114,3.1896 4.6674,6.6511 4.6674,10.385 0,3.423 -1.2445,6.4568 -3.734,9.1016 -1.8669,2.0227 -4.0063,3.6949 -6.4177,5.0175 -2.4114,1.3226 -4.7841,1.9836 -7.1179,1.9836 -2.3337,0 -3.8115,-0.0776 -4.434,-0.2333 -2.6448,-0.7778 -4.3565,-2.4505 -5.1342,-4.9785 -0.6225,-2.5285 -0.1167,-4.7065 1.5169,-6.5344 1.6336,-1.8284 3.4615,-2.7228 5.4843,-2.7228 1.4002,0 2.567,0.5834 3.5005,1.7112 1.867,2.1394 3.5006,3.1896 4.9009,3.1896 1.8669,0 3.3448,-1.4003 4.434,-4.2007 0.311,-0.9335 0.4668,-1.6336 0.4668,-2.1004 0,-3.4229 -1.867,-5.9119 -5.601,-7.4679 -1.2445,-0.6225 -2.6447,-0.9335 -4.2007,-0.9335 -2.8004,0 -5.8343,1.0892 -9.1015,3.2672 -1.7112,1.2445 -4.5117,3.5783 -8.4014,7.0012 -1.867,1.7112 -4.9784,4.6674 -9.3349,8.8681 -5.2899,5.1342 -10.1907,9.2573 -14.7024,12.3688 -9.1792,6.5344 -18.6698,9.8016 -28.4714,9.8016 -7.779,0 -15.2469,-2.178 -22.4038,-6.5344 -1.5559,-0.7778 -3.1895,-1.906 -4.9008,-3.3839 -1.7112,-1.4779 -2.8781,-2.7614 -3.5006,-3.8507 -0.6224,-1.0892 -1.2445,-2.1779 -1.8669,-3.2672 0,-0.1557 -0.0777,-0.3891 -0.2334,-0.7001 1.7112,1.2445 4.0449,2.8781 7.0011,4.9008 2.9562,2.0227 5.7567,3.5006 8.4014,4.4341 1.4003,0.311 3.4616,0.7001 6.1844,1.1669 2.7228,0.4667 5.0952,0.7001 7.1179,0.7001 4.2007,0 8.168,-0.4277 11.902,-1.2836 3.7339,-0.8558 8.0122,-2.5671 12.8354,-5.1342 4.8232,-2.5671 8.4405,-6.1067 10.8518,-10.6184 2.4114,-4.5117 3.6173,-9.4125 3.6173,-14.7024 0,-4.045 -0.5834,-7.779 -1.7503,-11.2019 -1.1669,-3.423 -2.9948,-6.6121 -5.4842,-9.5683 -5.4452,-6.2234 -12.1354,-9.3349 -20.07,-9.3349 -7.3122,0 -13.769,2.8005 -19.3699,8.4014 -1.867,1.867 -3.2282,3.8897 -4.0841,6.0677 -0.8558,2.178 -1.2835,4.5117 -1.2835,7.0012 0,6.0677 1.7112,10.2684 5.1342,12.6021 2.6447,1.867 4.7451,2.8005 6.301,2.8005 1.7113,0 3.1506,-0.8945 4.3174,-2.6838 1.1669,-1.7894 1.7503,-3.8507 1.7503,-6.1844 z m 0,97.5496 c 0,-2.4895 -0.5058,-4.5898 -1.5169,-6.3011 -1.0111,-1.7112 -2.5281,-2.5671 -4.5508,-2.5671 -1.5559,0 -3.8506,1.0502 -6.8844,3.1506 -3.0339,2.1003 -4.5508,6.1843 -4.5508,12.252 0,2.178 0.4277,4.4341 1.2835,6.7678 0.8559,2.3337 2.2171,4.4341 4.0841,6.3011 5.6009,5.6009 12.1353,8.4014 19.6032,8.4014 7.9347,0 14.4301,-3.0339 19.4866,-9.1016 5.0566,-6.0676 7.5846,-13.0688 7.5846,-21.0035 0,-5.2899 -1.1669,-10.1516 -3.5006,-14.5857 -2.3337,-4.4341 -6.0677,-8.0514 -11.2018,-10.8518 -4.045,-2.178 -8.2848,-3.773 -12.7188,-4.7842 -4.4341,-1.0111 -8.4405,-1.5169 -12.0187,-1.5169 -2.8005,0 -5.0566,0.1167 -6.7678,0.3501 -1.7112,0.2334 -4.045,0.8168 -7.0012,1.7503 -2.9562,0.9335 -6.1453,2.7228 -9.5682,5.3675 -1.7113,1.4003 -3.3449,2.7229 -4.9008,3.9674 0,-0.311 0,-0.6225 0,-0.9335 0.7777,-1.0893 1.4002,-2.1004 1.8669,-3.0339 1.556,-2.8004 4.3565,-5.2899 8.4014,-7.4679 7.3122,-4.3564 14.8582,-6.5344 22.6371,-6.5344 9.6459,0 19.0589,3.2672 28.2381,9.8016 4.5117,3.1115 9.4125,7.2346 14.7024,12.3688 4.3565,4.2007 7.4679,7.1569 9.3349,8.8681 1.867,1.7112 3.8897,3.4229 6.0677,5.1342 4.3564,3.4229 8.168,5.1342 11.4352,5.1342 0.9335,0 2.2947,-0.3501 4.0841,-1.0502 1.7893,-0.7001 3.1895,-1.7112 4.2007,-3.0338 1.0111,-1.3226 1.5169,-2.7615 1.5169,-4.3174 0,-0.4668 -0.1558,-1.1669 -0.4668,-2.1004 -1.0892,-2.8004 -2.6447,-4.2007 -4.6674,-4.2007 -1.2445,0 -2.8005,1.0112 -4.6675,3.0339 -0.9335,1.0892 -2.1003,1.6336 -3.5005,1.6336 -2.0228,0 -3.8507,-0.8945 -5.4843,-2.6838 -1.6336,-1.7893 -2.1394,-3.9283 -1.5169,-6.4177 0.6225,-2.0228 1.7112,-3.3839 3.2282,-4.0841 1.5559,-0.7001 3.6172,-1.0501 6.2624,-1.0501 2.2947,0 4.6675,0.661 7.0398,1.9836 2.4118,1.3226 4.5121,2.9948 6.3791,5.0175 2.6057,2.9562 3.9283,5.912 3.9283,8.8682 0,3.1115 -1.5946,6.3787 -4.7841,9.8016 -3.1896,3.423 -7.4289,5.1342 -12.7188,5.1342 -4.5117,0 -8.4405,-1.3612 -11.7853,-4.084 -3.3449,-2.7228 -6.7288,-5.3285 -10.1517,-7.818 -1.7113,-1.2445 -3.5006,-2.7228 -5.3676,-4.4341 1.0892,2.178 1.6336,4.1617 1.6336,5.951 0,1.7894 0,3.1506 0,4.0841 0,9.1791 -3.1114,17.1528 -9.3349,23.9206 -6.2234,6.7678 -14.0799,10.1517 -23.5706,10.1517 -9.6459,0 -17.7362,-2.4114 -24.2707,-7.2345 -7.0011,-5.29 -10.5017,-12.213 -10.5017,-20.7702 0,-3.8897 0.7777,-7.5069 2.3337,-10.8518 1.556,-3.3448 3.5782,-6.1067 6.0677,-8.2847 4.3564,-3.8897 9.3349,-5.8343 14.9358,-5.8343 3.8897,0 7.6237,0.9335 11.2019,2.8005 2.6447,1.4002 4.6674,2.8395 6.0677,4.3174 1.4002,1.4778 2.4113,3.6949 3.0338,6.6511 0.4667,2.4894 -0.0776,4.9008 -1.6336,7.2345 -1.556,2.3337 -3.5782,3.6563 -6.0677,3.9673 -2.8005,0.6225 -5.2509,0.2334 -7.3512,-1.1668 -2.1004,-1.4003 -3.3063,-3.423 -3.6173,-6.0677 z M 27.4708,78.7981 c 2.178,2.9562 6.3787,5.2119 12.6021,6.7678 6.2234,1.556 11.7463,2.3338 16.5695,2.3338 h 27.7713 7.0011 c 8.2457,0 14.43,-0.1167 18.5531,-0.3501 4.1231,-0.2334 7.7403,-0.9725 10.8518,-2.178 4.8232,-1.7117 8.0123,-2.9171 9.5683,-3.6954 2.6447,-1.2445 5.6786,-2.9948 9.1015,-5.2894 2.0227,-1.556 4.1231,-3.6954 6.3011,-6.4568 1.7112,-2.178 3.5005,-4.7841 5.3675,-7.857 2.0227,-7.9733 5.2118,-11.9796 9.5683,-11.9796 1.0892,0 2.2946,0.2333 3.6172,0.7001 1.3226,0.4667 1.9837,2.2946 1.9837,5.5233 0,3.3839 -1.1669,6.4563 -3.5006,9.2182 -3.773,4.6284 -7.7403,8.44 -11.9796,11.5128 -2.6452,2.0228 -7.7403,5.0952 -15.2473,9.2182 7.196,-2.2946 14.119,-4.9784 20.8482,-8.0513 5.4452,-2.7614 9.6459,-5.99 12.6407,-9.6849 2.1785,-2.9172 4.2398,-5.2119 6.1844,-6.9236 1.9451,-1.6722 3.6954,-2.528 5.2899,-2.528 0.6225,0 1.3226,0.2334 2.1004,0.7001 2.3337,1.3612 3.5005,3.0729 3.5005,5.0565 0,2.4505 -1.9446,5.4062 -5.8343,8.7515 -3.2672,2.6447 -7.5455,4.9394 -12.8354,6.9231 l -18.2031,7.1569 11.4353,-0.9335 c 7.0011,-0.7778 13.4189,-2.5281 19.2532,-5.2509 5.8343,-2.7228 10.1517,-6.1067 12.9521,-10.1517 2.9562,2.178 5.29,5.1342 7.0012,8.8682 1.7113,3.7339 2.5671,7.0011 2.5671,9.8016 0,2.8005 -0.8558,6.0677 -2.5671,9.8016 -1.7112,3.734 -4.045,6.6902 -7.0012,8.8682 -2.6447,-3.8897 -7.0011,-7.2736 -13.0688,-10.1517 -6.0677,-2.8781 -12.4464,-4.6284 -19.1365,-5.2509 l -11.4353,-0.9335 18.2031,7.2346 c 2.4894,0.9334 4.7841,1.9836 6.8844,3.1505 2.1004,1.1668 4.0841,2.4504 5.951,3.8506 3.8897,3.2672 5.8343,6.2234 5.8343,8.8682 0,2.0227 -1.1668,3.7339 -3.5005,5.1342 -0.7778,0.4667 -1.4779,0.7001 -2.1004,0.7001 -1.4002,0 -3.1505,-0.8945 -5.2509,-2.6838 -2.1003,-1.7893 -4.1616,-4.084 -6.1843,-6.8845 -2.9562,-3.7339 -7.1569,-7.0012 -12.6021,-9.8016 -6.6902,-3.1115 -13.6133,-5.8343 -20.7702,-8.168 6.8455,3.8896 11.8244,7.0011 14.9359,9.3348 4.5117,3.423 8.5571,7.3122 12.1353,11.6687 2.3337,2.8004 3.5006,5.9119 3.5006,9.3348 0,3.2673 -1.0111,5.2119 -3.0338,5.8343 -0.4668,0.1558 -0.9726,0.2725 -1.517,0.3501 -0.5443,0.0776 -0.8944,0.1167 -1.0501,0.1167 -4.6675,0 -7.857,-4.045 -9.5683,-12.1354 -1.2445,-2.0227 -2.4894,-4.0449 -3.7339,-6.0676 -2.3338,-3.423 -4.9399,-6.1844 -7.818,-8.2848 -2.8781,-2.1003 -5.6786,-3.773 -8.4014,-5.0175 -2.7228,-1.2445 -6.1844,-2.6447 -10.3851,-4.2007 -2.6447,-0.9334 -6.7287,-1.5945 -12.252,-1.9836 -5.5233,-0.3891 -11.1628,-0.5835 -16.9195,-0.5835 H 84.4137 56.6424 c -5.4452,0 -11.0852,0.7392 -16.9195,2.2171 -5.8343,1.4779 -9.9184,3.773 -12.2521,6.8845 H 22.57 C 18.9918,97.4679 15.8022,94.7451 13.0017,93.0338 10.2013,91.3226 6.7007,90.4667 2.5,90.4667 v -0.9334 c 4.045,0 7.507,-0.8168 10.3851,-2.4505 2.8781,-1.6336 6.1067,-4.395 9.6849,-8.2847 z"
   id="path29"
   inkscape:connector-curvature="0"
   style="fill:#1f1a17;stroke:#1f1a17;stroke-width:0.0762" />
 </g>
<path
   style="fill:#ffff00;stroke-width:0.78770387"
   d="m 154.96724,123.13991 c -0.98109,-0.47314 -2.67444,-2.82508 -3.78977,-5.26369 C 144.79953,103.93108 140.51388,98.755473 131.36254,93.946586 120.97618,88.488717 115.19445,87.083327 99.368166,86.169578 78.35271,84.95622 46.558224,85.746477 38.878413,87.673057 33.270815,89.079796 26.289223,92.397414 25.188486,94.178443 24.338081,95.55443 20.371142,95.01513 18.831889,93.314275 15.876494,90.048599 9.5296252,85.97095 5.9785596,85.056441 L 2.3508508,84.122192 5.8614667,83.163647 C 9.78158,82.093293 14.568141,79.023344 18.055374,75.342863 c 2.567424,-2.709704 5.893441,-3.235447 7.583737,-1.198767 1.984417,2.391077 8.494783,5.00461 16.594676,6.661796 7.689683,1.57326 9.985451,1.653071 39.281299,1.365607 l 31.114304,-0.305308 7.08933,-2.589646 c 8.4055,-3.070421 14.80191,-6.349524 18.77651,-9.625729 3.99818,-3.295634 9.53919,-11.280754 11.54148,-16.632348 2.66361,-7.119128 8.69219,-10.706454 12.16175,-7.236891 1.6229,1.622898 1.59181,6.817561 -0.06,10.026075 -3.46445,6.729436 -12.3372,14.705692 -22.95771,20.63811 -3.10241,1.732947 -5.64894,3.407749 -5.65897,3.72178 -0.0284,0.891606 12.2087,-3.757231 20.2188,-7.681015 6.36033,-3.115635 8.022,-4.399322 13.67712,-10.56596 7.62373,-8.313314 10.08536,-9.687962 13.20132,-7.37203 5.31104,3.94743 1.27859,11.389196 -9.01108,16.629668 -1.78753,0.910381 -7.81347,3.470211 -13.39097,5.688512 -5.57749,2.218304 -10.40064,4.283318 -10.7181,4.588925 -0.31746,0.305605 2.85957,0.278993 7.06004,-0.05914 13.96478,-1.124146 26.21969,-5.657638 32.78181,-12.127065 l 3.50443,-3.454922 2.52114,2.871436 c 3.22394,3.671863 5.5428,9.056695 6.05524,14.061442 0.51428,5.022614 -1.9872,11.980362 -5.84076,16.245789 l -2.74878,3.042568 -3.93775,-3.540371 c -7.34065,-6.599891 -18.96707,-10.776307 -32.95573,-11.838289 -4.09081,-0.310562 -7.2606,-0.374263 -7.04398,-0.141557 0.21661,0.232706 5.00191,2.257099 10.634,4.498655 13.55888,5.396401 18.65812,8.191528 22.4512,12.306532 3.59834,3.90373 4.12978,7.19726 1.57376,9.75327 -3.01575,3.01575 -6.86956,1.51925 -12.17106,-4.72622 -4.72062,-5.56117 -9.24402,-9.334594 -14.50208,-12.097624 -5.8978,-3.09921 -19.67126,-8.559175 -20.70765,-8.208766 -0.35778,0.120967 2.59566,2.169509 6.56322,4.552312 8.28189,4.973878 19.65431,15.502518 21.48973,19.895308 3.30595,7.91225 -0.71189,13.808 -7.25839,10.65091 z"
   id="path73"
   inkscape:connector-curvature="0" /><path
   style="fill:#ffff00;stroke-width:0.78770387"
   d="m 51.804467,74.053403 c -6.153793,-1.657565 -14.826966,-6.304701 -18.359265,-9.836999 -4.668051,-4.668052 -3.794979,-5.126686 2.158516,-1.133885 5.77651,3.874103 7.92472,4.629041 16.714332,5.873861 13.697933,1.939959 29.876404,-3.318304 37.757608,-12.271825 4.719839,-5.362016 6.616917,-10.98824 6.616917,-19.623986 0,-12.663043 -5.308132,-21.950407 -15.532136,-27.1757814 C 76.288695,7.3948945 75.148005,7.1299736 69.385094,7.1500121 64.163985,7.1681651 62.18275,7.5530804 58.485942,9.2674941 52.737144,11.933531 46.73251,17.886544 45.455835,22.185587 c -1.404376,4.729056 -1.16359,11.20582 0.557512,14.996294 1.588851,3.499209 6.943319,7.361875 10.205108,7.361875 2.607897,0 5.453083,-3.575603 6.058691,-7.614081 1.035359,-6.904284 6.45629,-10.339872 12.397874,-7.857321 3.141395,1.312561 6.044782,5.31064 6.049417,8.330298 0.0016,1.054618 -0.718452,3.407698 -1.600163,5.229068 C 74.983008,51.186435 60.556142,55.168369 50.984388,50.398564 39.77712,44.813747 34.482181,29.633686 39.679047,17.987295 45.897393,4.0517287 67.816277,-3.4599378 84.102362,2.7632936 90.74444,5.3013615 97.290189,11.658464 101.00874,19.182432 c 2.92574,5.919839 2.9559,6.078551 2.9559,15.551976 v 9.571098 l 7.84444,-6.688439 c 4.31444,-3.678642 9.27698,-7.339152 11.02785,-8.134466 4.38441,-1.991561 12.14786,-1.962536 16.11283,0.06024 5.90043,3.010178 9.48178,9.578102 8.39155,15.389497 -0.65132,3.471854 -5.74278,9.306496 -10.02939,11.493367 -4.28739,2.187263 -10.98825,2.057212 -13.56749,-0.263318 -3.38165,-3.042473 -2.83272,-8.406299 1.06666,-10.42275 3.26021,-1.685922 4.33417,-1.516308 7.39055,1.167228 2.6728,2.346751 4.75881,2.895351 6.58835,1.732669 1.31433,-0.835263 3.25087,-5.803672 2.82452,-7.246593 -1.39995,-4.737872 -4.85868,-7.089336 -10.42758,-7.089336 -5.7614,0 -7.18102,1.030232 -29.75496,21.593476 C 85.97676,69.975668 74.626649,75.361955 60.730347,75.212364 58.081748,75.183854 54.065101,74.66232 51.804467,74.0534 Z"
   id="path75"
   inkscape:connector-curvature="0" /><path
   style="fill:#ffff00;stroke-width:0.78770387"
   d="m 60.158021,166.31591 c -9.326012,-2.65686 -17.394255,-8.93744 -20.599208,-16.03508 -2.560704,-5.67089 -2.429087,-14.9088 0.295171,-20.7175 2.314726,-4.9355 6.649678,-9.53342 11.334504,-12.02209 4.548454,-2.41622 13.463423,-2.33187 19.095235,0.18068 7.861926,3.50749 12.168456,10.99981 9.399917,16.35357 -1.902086,3.67823 -4.168354,5.19498 -8.364571,5.59818 -3.508129,0.33709 -4.143383,0.14271 -6.175912,-1.88982 -1.59753,-1.59753 -2.417963,-3.37742 -2.7824,-6.03629 -1.085147,-7.917 -3.950616,-9.6465 -10.595832,-6.3953 -5.172607,2.53072 -7.230181,6.19969 -7.250226,12.92825 -0.0204,6.84758 1.243182,10.03469 5.759902,14.52812 5.092591,5.06633 10.238811,7.5095 17.014237,8.07753 9.917289,0.83143 17.939297,-3.06018 23.90224,-11.59537 7.920966,-11.33785 7.44107,-28.39676 -1.070882,-38.06685 -6.204598,-7.0488 -20.330427,-12.328619 -32.984436,-12.328619 -8.897874,0 -15.102188,1.657579 -20.817958,5.561849 -2.546797,1.73964 -4.827799,2.96572 -5.068893,2.72463 -0.988139,-0.98814 6.009637,-6.84086 11.311419,-9.460525 5.771398,-2.8517 14.26347,-5.10023 19.262163,-5.10023 4.608877,0 13.366019,2.175592 18.581991,4.616439 7.928318,3.710106 13.561887,7.969426 27.238318,20.593836 17.57107,16.21946 22.56054,18.60584 29.93446,14.31709 4.10031,-2.38478 5.20035,-7.36891 2.44427,-11.07457 -2.18905,-2.94328 -4.31309,-2.9905 -7.52846,-0.16736 -1.5082,1.32421 -3.6184,2.40766 -4.68935,2.40766 -2.27512,0 -6.07534,-3.23258 -6.20644,-5.27939 -0.3529,-5.50927 1.6109,-7.51374 7.74022,-7.90051 3.95961,-0.24986 5.10578,0.0313 8.70659,2.13607 7.62554,4.45724 11.07987,11.52802 8.46488,17.32701 -3.68159,8.16432 -13.13269,12.23494 -21.74956,9.36762 -1.47267,-0.49004 -6.81737,-4.03471 -11.87712,-7.87704 -5.05975,-3.84233 -9.38353,-6.98606 -9.6084,-6.98606 -0.22486,0 -0.0257,1.09913 0.44261,2.4425 0.49579,1.42223 0.68593,5.34562 0.45519,9.39247 -0.5049,8.85518 -3.37388,15.37927 -9.662211,21.97192 -6.559398,6.87684 -11.850472,9.0634 -22.446838,9.27625 -4.974815,0.0999 -9.718987,-0.24641 -11.90462,-0.86907 z"
   id="path77"
   inkscape:connector-curvature="0" /><path
   style="fill:#d4aa00;stroke-width:2.97714853"
   d="M 583.86391,461.56733 C 581.38788,459.0913 572.24911,443.40312 563.5555,426.7047 542.67492,386.59782 523.57145,366.89794 489.69456,350.53771 442.602,327.7952 408.64607,323.17104 288.73704,323.17104 c -119.49686,0 -162.00354,6.31218 -190.893133,28.34735 -11.325597,8.63845 -14.643171,7.85583 -35.16392,-8.29521 -16.695643,-13.14046 -34.672642,-22.95345 -42.511992,-23.20576 -2.930737,-0.0943 1.387931,-3.22791 9.597041,-6.96352 8.20911,-3.7356 22.70285,-13.12662 32.20831,-20.86892 9.505464,-7.74231 19.535379,-14.20163 22.288702,-14.35405 2.753327,-0.15243 11.70463,3.89855 19.891792,9.00215 8.18715,5.1036 24.93361,12.28277 37.21435,15.95371 21.35413,6.38315 27.97403,6.7213 151.68357,7.74799 l 129.35496,1.07355 22.47962,-7.91513 c 65.5953,-23.09628 93.73537,-45.60938 120.72551,-96.58492 16.93,-31.97521 28.75646,-42.20689 41.87612,-36.22916 6.36318,2.89926 7.24683,5.24401 7.24683,19.2296 0,12.83132 -1.79465,18.63714 -9.23154,29.86482 -12.69078,19.15957 -39.79525,42.6045 -73.0087,63.15137 -39.66294,24.53669 -37.70574,27.73031 6.32295,10.31734 50.06996,-19.80222 61.38339,-26.8277 94.43378,-58.64202 33.43427,-32.18382 41.23399,-36.05051 50.98507,-25.27567 9.09986,10.05524 6.27413,23.13677 -8.1035,37.5144 -13.38207,13.38206 -32.76414,23.63546 -87.63686,46.3612 -16.88749,6.99401 -29.6148,13.68404 -28.28291,14.86673 3.90804,3.47025 53.0588,-2.2012 77.72715,-8.96887 27.32505,-7.49652 52.71682,-20.57772 70.74307,-36.44505 l 13.30145,-11.70843 6.09714,6.98357 c 3.35343,3.84096 10.18819,15.41283 15.18834,25.71528 7.84321,16.16036 8.92811,21.26889 7.90323,37.21436 -1.26773,19.72327 -9.30862,39.4337 -21.88621,53.64895 l -7.40748,8.37199 -17.1024,-13.27789 c -34.02914,-26.41933 -72.24968,-39.63559 -122.79121,-42.45989 -33.63574,-1.87958 -33.31275,-1.55383 21.20617,21.38776 46.63453,19.62384 60.27752,27.18381 73.16276,40.54153 12.61645,13.07906 16.3057,23.25971 11.74429,32.40897 -7.79045,15.62609 -22.57229,11.21778 -46.85666,-13.97378 -27.82532,-28.8648 -49.04602,-43.48662 -85.18559,-58.69597 -55.72427,-23.45156 -63.4734,-22.10136 -22.54449,3.92813 28.61528,18.19841 73.14047,59.51422 78.04818,72.42244 4.03416,10.61066 4.07867,27.50163 0.092,34.95063 -3.79405,7.08921 -21.17069,7.87506 -27.78901,1.25671 z"
   id="path32"
   inkscape:connector-curvature="0"
   transform="scale(0.26458332)" /><path
   style="fill:#d4aa00;stroke-width:2.97714853"
   d="m 184.20292,274.41138 c -21.82885,-8.11452 -42.31058,-19.80461 -56.45019,-32.21935 -14.64733,-12.86053 -10.75985,-13.5051 8.22112,-1.36312 58.78703,37.60561 156.01952,25.79301 202.69811,-24.62544 21.54389,-23.26998 27.27644,-39.74531 27.00786,-77.62061 -0.15367,-21.67132 -1.73802,-32.28233 -6.7775,-45.391567 -8.58204,-22.324505 -30.48579,-46.164542 -52.78825,-57.454723 -15.45036,-7.82144 -20.34783,-8.791888 -44.17136,-8.75268 -31.50508,0.05185 -45.3913,5.242839 -68.15732,25.478779 -18.95866,16.851706 -25.47407,31.430885 -25.55748,57.188621 -0.0831,25.66527 5.20144,38.14818 20.99231,49.58702 21.60879,15.65333 41.03935,9.58456 46.23483,-14.4406 6.66209,-30.80713 26.12966,-43.73262 48.52927,-32.22101 34.47713,17.71848 17.84609,65.11742 -27.99591,79.78918 C 201.34436,209.85475 149.34132,171.95584 145.01505,111.49044 143.08567,84.524847 149.72824,65.539517 168.14126,45.392737 207.029,2.8433569 287.43737,-8.9655173 334.77921,20.920079 c 15.72542,9.927022 37.23941,34.981542 46.85896,54.570471 7.43814,15.14682 8.48,21.021446 9.81049,55.31751 l 1.48858,38.37101 23.05652,-19.60954 c 34.31343,-29.1835 48.21391,-37.87588 64.74971,-40.48983 17.90427,-2.83029 38.56762,-0.0283 48.68698,6.60225 18.53659,12.14563 29.45251,37.56043 24.5398,57.13426 -2.32602,9.26755 -23.59715,33.11503 -34.34978,38.51017 -18.25924,9.1616 -45.10293,7.63022 -53.99172,-3.08011 -6.51057,-7.84476 -4.89175,-24.98596 2.96015,-31.34406 9.39073,-7.60413 19.64189,-6.99021 31.26105,1.87216 17.36987,13.24863 30.63083,8.16198 36.03105,-13.82081 2.56303,-10.43336 -5.16871,-25.02077 -16.31751,-30.78603 -4.80324,-2.48386 -15.85111,-4.51611 -24.55082,-4.51611 -20.42401,0 -30.27045,6.65841 -94.05547,63.60282 -81.99714,73.20336 -111.17821,88.29158 -170.27455,88.04129 -21.87235,-0.0926 -32.40738,-1.65299 -46.47973,-6.88415 z"
   id="path34"
   inkscape:connector-curvature="0"
   transform="scale(0.26458332)" /><path
   style="fill:#d4aa00;stroke-width:2.97714853"
   d="m 220.00366,624.53313 c -35.23788,-12.53136 -64.96911,-40.11612 -72.59531,-67.35424 -5.29173,-18.9002 -2.62543,-51.23511 5.63121,-68.29103 8.51125,-17.5819 27.26333,-36.74593 42.90554,-43.8481 32.84397,-14.91243 82.77212,-0.96274 100.47716,28.07286 9.21777,15.11681 7.57663,30.39025 -4.5707,42.53759 -9.47905,9.47905 -11.50705,10.21195 -25.94966,9.37802 -14.05398,-0.8115 -16.36701,-1.94615 -22.46598,-11.02064 -3.73944,-5.56381 -6.79898,-13.39964 -6.79898,-17.41296 0,-10.59349 -8.58813,-27.03808 -15.21977,-29.14288 -6.87834,-2.1831 -24.99622,3.32822 -35.76899,10.88065 -12.08224,8.47045 -17.48565,23.02653 -17.48565,47.10401 0,25.78208 5.5868,38.24741 25.27612,56.3964 21.9899,20.26958 36.67695,25.64863 69.99263,25.6344 24.84559,-0.0106 30.10655,-0.97297 43.28817,-7.91849 66.03938,-34.79675 81.07432,-136.84752 27.41958,-186.11241 -15.59975,-14.32344 -28.09461,-21.09544 -57.31058,-31.06136 -18.0729,-6.16488 -26.38332,-7.10879 -62.58794,-7.10879 H 172.4926 l -20.77221,10.42002 c -27.60917,13.84966 -27.80599,13.90029 -19.68722,5.06386 3.87162,-4.21385 15.92907,-12.3218 26.79434,-18.01768 38.62091,-20.24617 76.48365,-24.73292 116.09181,-13.75694 38.52286,10.67523 64.29939,27.10568 116.06823,73.98408 79.83204,72.29058 96.72801,81.91622 123.87684,70.57272 20.02603,-8.36741 26.98874,-33.56018 13.30184,-48.12922 -7.63665,-8.12883 -16.40328,-9.23118 -23.35814,-2.93712 -2.58872,2.34277 -8.60703,6.28306 -13.37404,8.7562 -7.61301,3.94968 -9.68368,3.97101 -17.02369,0.17533 -15.81717,-8.17937 -18.97474,-23.86005 -7.17972,-35.65505 6.09297,-6.09299 10.20203,-7.30754 24.72287,-7.30754 14.09536,0 20.00605,1.64296 31.00506,8.61833 23.99885,15.21962 36.13725,37.94178 31.06497,58.15129 -2.7171,10.82578 -18.59459,27.82346 -32.78704,35.10025 -8.08123,4.14342 -17.82273,6.25867 -28.89909,6.27509 -19.11374,0.0283 -24.58634,-2.75989 -67.67359,-34.47902 -15.29901,-11.26253 -29.36604,-21.07051 -31.26006,-21.79553 -2.49122,-0.95362 -3.44367,8.77689 -3.44367,35.18152 0,34.09211 -0.55906,37.63827 -8.47544,53.76002 -11.69724,23.82149 -37.23149,50.58646 -57.98174,60.77639 -15.22152,7.4749 -20.45687,8.37996 -52.62876,9.09819 -28.40399,0.63411 -38.8296,-0.30622 -50.87049,-4.58822 z"
   id="path36"
   inkscape:connector-curvature="0"
   transform="scale(0.26458332)" /><path
   style="fill:#ffcc00;stroke-width:2.97714853"
   d="m 235.11855,626.93778 c -31.26199,-4.72699 -69.1255,-31.93705 -82.36691,-59.19179 -7.61474,-15.67338 -8.85373,-46.06206 -2.77486,-68.05869 7.47373,-27.04394 38.41993,-55.17313 65.15752,-59.22627 17.58189,-2.66523 46.27649,4.35351 62.97431,15.40361 14.71826,9.74008 25.38934,29.96669 22.57349,42.78716 -1.06883,4.86635 -6.74263,13.06176 -12.60844,18.21201 -9.45375,8.3005 -12.04182,9.14395 -22.78598,7.42589 -17.82121,-2.84973 -24.65912,-10.85044 -29.91857,-35.0063 -0.96351,-4.42522 -4.83371,-11.62875 -8.60045,-16.00785 l -6.84863,-7.96201 -16.32558,4.74598 c -24.8746,7.23124 -35.44864,23.28371 -35.41532,53.76404 0.0244,22.43993 4.59029,35.14534 18.17599,50.57952 26.22659,29.79498 61.81583,39.72505 108.77598,30.35054 10.55565,-2.10719 29.25722,-15.33729 40.88857,-28.9259 42.99354,-50.22828 39.10526,-129.45098 -8.22019,-167.48413 -29.61503,-23.80016 -55.51563,-31.7245 -109.3224,-33.44738 l -43.46562,-1.39177 -20.54307,10.54206 c -11.29869,5.79813 -21.88279,10.51881 -23.52022,10.4904 -4.9383,-0.0857 10.84613,-11.50107 28.28291,-20.45432 50.77261,-26.07019 97.63468,-26.21325 149.98289,-0.45788 24.27677,11.9442 44.10159,27.13557 106.58352,81.67286 45.85647,40.02576 61.12805,49.89912 78.9128,51.01857 18.46641,1.16235 28.36903,-3.90694 36.19414,-18.52832 5.76266,-10.7676 4.14821,-24.26557 -3.8602,-32.27396 -9.19677,-9.19679 -14.08027,-9.173 -27.7787,0.13531 -14.15878,9.62113 -19.99941,9.38104 -30.64001,-1.25956 -10.45652,-10.45651 -10.83777,-15.30232 -2.00386,-25.46927 26.63095,-30.64955 98.8856,16.2234 85.85793,55.69764 -7.03226,21.30795 -35.75323,40.99419 -59.80788,40.99419 -16.83473,0 -26.28807,-4.68709 -65.43855,-32.44535 -29.31468,-20.78453 -34.47484,-23.48363 -36.26083,-18.96675 -1.14527,2.89646 -2.17648,19.45427 -2.29157,36.79513 -0.19146,28.84848 -0.96796,33.04717 -9.13407,49.38897 -10.63914,21.29081 -41.52765,52.24016 -60.13934,60.2578 -14.7321,6.34636 -61.06616,9.80721 -84.2888,6.29582 z"
   id="path70"
   inkscape:connector-curvature="0"
   transform="scale(0.26458332)" /><path
   style="fill:#ffcc00;stroke-width:2.97714853"
   d=""
   id="path72"
   inkscape:connector-curvature="0"
   transform="scale(0.26458332)" /><path
   style="fill:#ffcc00;stroke-width:2.97714853"
   d="m 585.58893,460.74051 c -2.93079,-2.93078 -11.95253,-17.33274 -20.04832,-32.00435 -20.54748,-37.23711 -51.56913,-67.7647 -82.21574,-80.90628 -49.74292,-21.33028 -65.73163,-23.19937 -197.56498,-23.09545 -94.09293,0.0742 -108.69481,0.94028 -151.83457,9.00603 -4.91229,0.91844 -17.35079,6.28337 -27.64111,11.92207 -10.290306,5.63869 -20.158693,10.25217 -21.929739,10.25217 -1.771046,0 -9.778983,-4.81467 -17.795417,-10.69928 -8.016434,-5.8846 -21.305091,-14.37947 -29.530348,-18.87748 l -14.955014,-8.1782 24.665755,-16.07259 c 41.225418,-26.86312 34.332277,-25.84175 68.045563,-10.08244 25.93404,12.12289 33.283,14.18475 58.63256,16.45023 38.10002,3.40498 251.39231,3.55417 260.26165,0.18205 3.79083,-1.44126 7.56225,-2.69815 8.38097,-2.79308 6.91094,-0.80131 50.0562,-21.65578 65.71266,-31.76254 22.09857,-14.26533 33.83065,-27.60535 56.32714,-64.04695 20.03374,-32.45224 25.87425,-38.70293 36.16328,-38.70293 14.09656,0 18.65957,16.96219 10.08414,37.48609 -6.86016,16.4187 -39.00961,47.68355 -70.23612,68.30355 -30.34586,20.03849 -39.57127,28.18205 -31.92598,28.18205 2.38374,0 5.33886,-1.00479 6.56693,-2.23287 1.22807,-1.22807 3.12601,-2.34856 4.21761,-2.48998 2.7385,-0.35478 19.85439,-6.81843 33.24483,-12.5546 4.09358,-1.7536 10.32359,-3.99028 13.84443,-4.97041 11.92494,-3.31961 43.61058,-25.80079 68.60371,-48.67475 13.68363,-12.5234 28.19893,-24.50915 32.25624,-26.635 15.22853,-7.97903 26.95106,8.36873 18.17308,25.34345 -9.18489,17.7616 -23.01505,26.80557 -80.77736,52.82275 -32.90344,14.8203 -43.08598,20.69279 -39.34334,22.69018 4.8002,2.56179 59.86878,-4.87971 80.51698,-10.88039 13.72385,-3.98836 50.09171,-23.82423 60.76363,-33.14188 6.15692,-5.37559 12.7778,-9.7995 14.71309,-9.83091 6.9779,-0.11326 25.81325,32.78357 29.2454,51.07846 3.81325,20.32643 -13.55538,67.74183 -26.65584,72.76895 -2.21801,0.85113 -10.52845,-3.09226 -18.46767,-8.76309 -28.89227,-20.6372 -61.91972,-35.32641 -87.37508,-38.86076 -22.57786,-3.13483 -59.54297,-5.50149 -59.54297,-3.81218 0,1.96485 15.59805,9.50356 61.66466,29.80322 36.45673,16.06498 54.73443,28.13831 63.10692,41.68528 7.70679,12.46988 7.8876,20.33398 0.61874,26.91221 -8.94726,8.09715 -18.41304,3.40709 -48.5132,-24.03704 -15.26479,-13.91783 -36.46233,-30.47165 -47.10564,-36.78626 -28.17183,-16.7142 -83.93823,-37.82391 -79.05713,-29.92614 1.00362,1.6239 12.83841,10.6979 26.2995,20.16442 13.46109,9.46653 35.5248,27.79962 49.03045,40.74021 26.07744,24.9864 32.86114,38.03769 28.97278,55.74129 -3.10249,14.12563 -17.80799,19.07231 -27.59713,9.28317 z"
   id="path74"
   inkscape:connector-curvature="0"
   transform="scale(0.26458332)" /><path
   style="fill:#ffcc00;stroke-width:2.97714853"
   d="m 202.46341,278.49944 c -17.93133,-3.22872 -58.65765,-23.25133 -73.00381,-35.89145 -11.88053,-10.4677 -11.43297,-10.39474 14.88574,2.42678 28.57003,13.91829 48.81226,18.2676 79.32883,17.04487 14.49797,-0.58091 29.70923,-1.87967 33.80281,-2.88614 4.09358,-1.00646 10.59786,-2.48282 14.45395,-3.28079 11.57851,-2.39601 42.73465,-19.07457 56.47689,-30.2333 7.08205,-5.75064 17.79978,-17.86853 23.81719,-26.92864 l 10.94074,-16.47293 1.04598,-38.32709 c 1.01535,-37.20524 0.7975,-38.82174 -7.44287,-55.22626 -9.86401,-19.636772 -34.57015,-45.624509 -51.6661,-54.346214 -6.545,-3.339008 -11.9,-5.586229 -11.9,-4.993825 0,0.592404 -6.36365,0.05665 -14.14145,-1.190572 -16.53557,-2.651581 -51.18601,1.431379 -62.70657,7.388894 -15.4295,7.978898 -34.29873,27.205871 -41.18767,41.968544 -10.91393,23.388023 -8.73182,58.635183 4.58134,74.001223 6.12291,7.06706 25.11911,16.80181 32.78672,16.80181 9.45598,0 20.18565,-12.16382 25.52732,-28.93932 5.29825,-16.63915 18.47111,-30.60365 28.86875,-30.60365 11.26672,0 26.71949,9.66875 31.51079,19.7162 4.01354,8.41648 4.14297,11.70396 0.88998,22.60493 -4.8454,16.23726 -22.08544,32.86093 -40.6337,39.18096 -58.08142,19.79032 -112.84749,-22.85031 -112.32579,-87.45639 0.19618,-24.294232 5.72337,-37.489839 23.79628,-56.811246 34.56764,-36.9556037 98.49553,-50.8966368 148.16825,-32.311693 21.08906,7.89043 48.97585,35.490754 61.22985,60.600879 7.69693,15.772072 9.06198,22.508812 10.60538,52.33925 0.97427,18.83046 2.33651,36.03867 3.0272,38.24047 0.84357,2.68917 6.87023,-0.77734 18.35969,-10.56045 46.61151,-39.689 61.13499,-47.00582 88.88282,-44.77849 22.94036,1.84143 36.15851,9.47886 45.65815,26.3812 14.16104,25.19617 5.88704,52.38402 -21.44676,70.47265 -13.42872,8.88672 -36.82405,11.97518 -49.84791,6.58052 -14.99387,-6.21066 -16.23061,-26.33662 -2.25713,-36.73061 l 8.15947,-6.06933 17.45455,8.34251 c 20.09986,9.60686 28.04798,8.62123 34.73356,-4.30724 5.61674,-10.8616 5.57402,-15.88906 -0.23043,-27.11357 -5.61178,-10.85205 -20.10502,-17.48051 -38.22135,-17.48051 -16.71595,0 -38.89523,14.56111 -88.10969,57.84565 -65.87584,57.93834 -89.77235,74.83057 -120.00754,84.83226 -21.2489,7.02905 -62.31388,10.05034 -83.86346,6.17011 z"
   id="path76"
   inkscape:connector-curvature="0"
   transform="scale(0.26458332)" /></svg>