<?xml version="1.0" encoding="UTF-8" standalone="no"?>
<!-- Creator: CorelDRAW -->

<svg
   xmlns:dc="http://purl.org/dc/elements/1.1/"
   xmlns:cc="http://creativecommons.org/ns#"
   xmlns:rdf="http://www.w3.org/1999/02/22-rdf-syntax-ns#"
   xmlns:svg="http://www.w3.org/2000/svg"
   xmlns="http://www.w3.org/2000/svg"
   xmlns:sodipodi="http://sodipodi.sourceforge.net/DTD/sodipodi-0.dtd"
   xmlns:inkscape="http://www.inkscape.org/namespaces/inkscape"
   xml:space="preserve"
   width="200.0762mm"
   height="168.1042mm"
   style="clip-rule:evenodd;fill-rule:evenodd;image-rendering:optimizeQuality;shape-rendering:geometricPrecision;text-rendering:geometricPrecision"
   viewBox="0 0 200.0762 168.1042"
   version="1.1"
   id="svg32"
   sodipodi:docname="orn2.svg"
   inkscape:version="0.92.3 (2405546, 2018-03-11)"><metadata
   id="metadata36"><rdf:RDF><cc:Work
       rdf:about=""><dc:format>image/svg+xml</dc:format><dc:type
         rdf:resource="http://purl.org/dc/dcmitype/StillImage" /><dc:title /></cc:Work></rdf:RDF></metadata><sodipodi:namedview
   pagecolor="#ffffff"
   bordercolor="#666666"
   borderopacity="1"
   objecttolerance="10"
   gridtolerance="10"
   guidetolerance="10"
   inkscape:pageopacity="0"
   inkscape:pageshadow="2"
   inkscape:window-width="1366"
   inkscape:window-height="715"
   id="namedview34"
   showgrid="false"
   fit-margin-top="0"
   fit-margin-left="0"
   fit-margin-right="0"
   fit-margin-bottom="0"
   inkscape:zoom="0.33589188"
   inkscape:cx="1144.0718"
   inkscape:cy="290.1575"
   inkscape:window-x="-8"
   inkscape:window-y="-8"
   inkscape:window-maximized="1"
   inkscape:current-layer="svg32" />
 <defs
   id="defs26">
  <style
   type="text/css"
   id="style24">
   <![CDATA[
    .str0 {stroke:#1F1A17;stroke-width:0.0762}
    .fil0 {fill:#1F1A17}
   ]]>
  </style>
 </defs>
 <g
   id="Layer_x0020_1"
   transform="rotate(-179.1727,101.24758,87.034944)">
  <metadata
   id="CorelCorpID_0Corel-Layer" />
  <path
   class="fil0 str0"
   d="m 64.577,41.2252 c 0.311,-2.4894 1.556,-4.4731 3.734,-5.951 2.178,-1.4779 4.5898,-1.906 7.2345,-1.2835 2.4895,0.311 4.5117,1.5945 6.0677,3.8506 1.556,2.2561 2.1003,4.7065 1.6336,7.3512 -0.4668,2.6448 -1.4779,4.8232 -3.0338,6.5345 -1.556,1.7112 -3.5783,3.1895 -6.0677,4.434 -3.5782,1.867 -7.3903,2.8005 -11.4353,2.8005 -5.7566,0 -10.6575,-1.9446 -14.7024,-5.8343 -2.3337,-2.0227 -4.3174,-4.7841 -5.951,-8.2847 -1.6336,-3.5006 -2.4504,-7.1179 -2.4504,-10.8518 0,-8.4014 3.4229,-15.1692 10.2684,-20.3034 C 56.72,8.5531 64.888,5.986 74.3786,5.986 c 9.4907,0 17.3472,3.3449 23.5706,10.035 6.2235,6.6902 9.3349,14.7025 9.3349,24.0373 0,1.867 -0.039,3.5006 -0.1167,4.9009 -0.0776,1.4002 -0.5057,3.1114 -1.2835,5.1342 l 14.7024,-12.3688 c 3.5783,-2.9562 7.9347,-4.434 13.0689,-4.434 4.9784,0 9.0239,1.5945 12.1354,4.7841 3.1114,3.1896 4.6674,6.6511 4.6674,10.385 0,3.423 -1.2445,6.4568 -3.734,9.1016 -1.8669,2.0227 -4.0063,3.6949 -6.4177,5.0175 -2.4114,1.3226 -4.7841,1.9836 -7.1179,1.9836 -2.3337,0 -3.8115,-0.0776 -4.434,-0.2333 -2.6448,-0.7778 -4.3565,-2.4505 -5.1342,-4.9785 -0.6225,-2.5285 -0.1167,-4.7065 1.5169,-6.5344 1.6336,-1.8284 3.4615,-2.7228 5.4843,-2.7228 1.4002,0 2.567,0.5834 3.5005,1.7112 1.867,2.1394 3.5006,3.1896 4.9009,3.1896 1.8669,0 3.3448,-1.4003 4.434,-4.2007 0.311,-0.9335 0.4668,-1.6336 0.4668,-2.1004 0,-3.4229 -1.867,-5.9119 -5.601,-7.4679 -1.2445,-0.6225 -2.6447,-0.9335 -4.2007,-0.9335 -2.8004,0 -5.8343,1.0892 -9.1015,3.2672 -1.7112,1.2445 -4.5117,3.5783 -8.4014,7.0012 -1.867,1.7112 -4.9784,4.6674 -9.3349,8.8681 -5.2899,5.1342 -10.1907,9.2573 -14.7024,12.3688 -9.1792,6.5344 -18.6698,9.8016 -28.4714,9.8016 -7.779,0 -15.2469,-2.178 -22.4038,-6.5344 -1.5559,-0.7778 -3.1895,-1.906 -4.9008,-3.3839 -1.7112,-1.4779 -2.8781,-2.7614 -3.5006,-3.8507 -0.6224,-1.0892 -1.2445,-2.1779 -1.8669,-3.2672 0,-0.1557 -0.0777,-0.3891 -0.2334,-0.7001 1.7112,1.2445 4.0449,2.8781 7.0011,4.9008 2.9562,2.0227 5.7567,3.5006 8.4014,4.4341 1.4003,0.311 3.4616,0.7001 6.1844,1.1669 2.7228,0.4667 5.0952,0.7001 7.1179,0.7001 4.2007,0 8.168,-0.4277 11.902,-1.2836 3.7339,-0.8558 8.0122,-2.5671 12.8354,-5.1342 4.8232,-2.5671 8.4405,-6.1067 10.8518,-10.6184 2.4114,-4.5117 3.6173,-9.4125 3.6173,-14.7024 0,-4.045 -0.5834,-7.779 -1.7503,-11.2019 -1.1669,-3.423 -2.9948,-6.6121 -5.4842,-9.5683 -5.4452,-6.2234 -12.1354,-9.3349 -20.07,-9.3349 -7.3122,0 -13.769,2.8005 -19.3699,8.4014 -1.867,1.867 -3.2282,3.8897 -4.0841,6.0677 -0.8558,2.178 -1.2835,4.5117 -1.2835,7.0012 0,6.0677 1.7112,10.2684 5.1342,12.6021 2.6447,1.867 4.7451,2.8005 6.301,2.8005 1.7113,0 3.1506,-0.8945 4.3174,-2.6838 1.1669,-1.7894 1.7503,-3.8507 1.7503,-6.1844 z m 0,97.5496 c 0,-2.4895 -0.5058,-4.5898 -1.5169,-6.3011 -1.0111,-1.7112 -2.5281,-2.5671 -4.5508,-2.5671 -1.5559,0 -3.8506,1.0502 -6.8844,3.1506 -3.0339,2.1003 -4.5508,6.1843 -4.5508,12.252 0,2.178 0.4277,4.4341 1.2835,6.7678 0.8559,2.3337 2.2171,4.4341 4.0841,6.3011 5.6009,5.6009 12.1353,8.4014 19.6032,8.4014 7.9347,0 14.4301,-3.0339 19.4866,-9.1016 5.0566,-6.0676 7.5846,-13.0688 7.5846,-21.0035 0,-5.2899 -1.1669,-10.1516 -3.5006,-14.5857 -2.3337,-4.4341 -6.0677,-8.0514 -11.2018,-10.8518 -4.045,-2.178 -8.2848,-3.773 -12.7188,-4.7842 -4.4341,-1.0111 -8.4405,-1.5169 -12.0187,-1.5169 -2.8005,0 -5.0566,0.1167 -6.7678,0.3501 -1.7112,0.2334 -4.045,0.8168 -7.0012,1.7503 -2.9562,0.9335 -6.1453,2.7228 -9.5682,5.3675 -1.7113,1.4003 -3.3449,2.7229 -4.9008,3.9674 0,-0.311 0,-0.6225 0,-0.9335 0.7777,-1.0893 1.4002,-2.1004 1.8669,-3.0339 1.556,-2.8004 4.3565,-5.2899 8.4014,-7.4679 7.3122,-4.3564 14.8582,-6.5344 22.6371,-6.5344 9.6459,0 19.0589,3.2672 28.2381,9.8016 4.5117,3.1115 9.4125,7.2346 14.7024,12.3688 4.3565,4.2007 7.4679,7.1569 9.3349,8.8681 1.867,1.7112 3.8897,3.4229 6.0677,5.1342 4.3564,3.4229 8.168,5.1342 11.4352,5.1342 0.9335,0 2.2947,-0.3501 4.0841,-1.0502 1.7893,-0.7001 3.1895,-1.7112 4.2007,-3.0338 1.0111,-1.3226 1.5169,-2.7615 1.5169,-4.3174 0,-0.4668 -0.1558,-1.1669 -0.4668,-2.1004 -1.0892,-2.8004 -2.6447,-4.2007 -4.6674,-4.2007 -1.2445,0 -2.8005,1.0112 -4.6675,3.0339 -0.9335,1.0892 -2.1003,1.6336 -3.5005,1.6336 -2.0228,0 -3.8507,-0.8945 -5.4843,-2.6838 -1.6336,-1.7893 -2.1394,-3.9283 -1.5169,-6.4177 0.6225,-2.0228 1.7112,-3.3839 3.2282,-4.0841 1.5559,-0.7001 3.6172,-1.0501 6.2624,-1.0501 2.2947,0 4.6675,0.661 7.0398,1.9836 2.4118,1.3226 4.5121,2.9948 6.3791,5.0175 2.6057,2.9562 3.9283,5.912 3.9283,8.8682 0,3.1115 -1.5946,6.3787 -4.7841,9.8016 -3.1896,3.423 -7.4289,5.1342 -12.7188,5.1342 -4.5117,0 -8.4405,-1.3612 -11.7853,-4.084 -3.3449,-2.7228 -6.7288,-5.3285 -10.1517,-7.818 -1.7113,-1.2445 -3.5006,-2.7228 -5.3676,-4.4341 1.0892,2.178 1.6336,4.1617 1.6336,5.951 0,1.7894 0,3.1506 0,4.0841 0,9.1791 -3.1114,17.1528 -9.3349,23.9206 -6.2234,6.7678 -14.0799,10.1517 -23.5706,10.1517 -9.6459,0 -17.7362,-2.4114 -24.2707,-7.2345 -7.0011,-5.29 -10.5017,-12.213 -10.5017,-20.7702 0,-3.8897 0.7777,-7.5069 2.3337,-10.8518 1.556,-3.3448 3.5782,-6.1067 6.0677,-8.2847 4.3564,-3.8897 9.3349,-5.8343 14.9358,-5.8343 3.8897,0 7.6237,0.9335 11.2019,2.8005 2.6447,1.4002 4.6674,2.8395 6.0677,4.3174 1.4002,1.4778 2.4113,3.6949 3.0338,6.6511 0.4667,2.4894 -0.0776,4.9008 -1.6336,7.2345 -1.556,2.3337 -3.5782,3.6563 -6.0677,3.9673 -2.8005,0.6225 -5.2509,0.2334 -7.3512,-1.1668 -2.1004,-1.4003 -3.3063,-3.423 -3.6173,-6.0677 z M 27.4708,78.7981 c 2.178,2.9562 6.3787,5.2119 12.6021,6.7678 6.2234,1.556 11.7463,2.3338 16.5695,2.3338 h 27.7713 7.0011 c 8.2457,0 14.43,-0.1167 18.5531,-0.3501 4.1231,-0.2334 7.7403,-0.9725 10.8518,-2.178 4.8232,-1.7117 8.0123,-2.9171 9.5683,-3.6954 2.6447,-1.2445 5.6786,-2.9948 9.1015,-5.2894 2.0227,-1.556 4.1231,-3.6954 6.3011,-6.4568 1.7112,-2.178 3.5005,-4.7841 5.3675,-7.857 2.0227,-7.9733 5.2118,-11.9796 9.5683,-11.9796 1.0892,0 2.2946,0.2333 3.6172,0.7001 1.3226,0.4667 1.9837,2.2946 1.9837,5.5233 0,3.3839 -1.1669,6.4563 -3.5006,9.2182 -3.773,4.6284 -7.7403,8.44 -11.9796,11.5128 -2.6452,2.0228 -7.7403,5.0952 -15.2473,9.2182 7.196,-2.2946 14.119,-4.9784 20.8482,-8.0513 5.4452,-2.7614 9.6459,-5.99 12.6407,-9.6849 2.1785,-2.9172 4.2398,-5.2119 6.1844,-6.9236 1.9451,-1.6722 3.6954,-2.528 5.2899,-2.528 0.6225,0 1.3226,0.2334 2.1004,0.7001 2.3337,1.3612 3.5005,3.0729 3.5005,5.0565 0,2.4505 -1.9446,5.4062 -5.8343,8.7515 -3.2672,2.6447 -7.5455,4.9394 -12.8354,6.9231 l -18.2031,7.1569 11.4353,-0.9335 c 7.0011,-0.7778 13.4189,-2.5281 19.2532,-5.2509 5.8343,-2.7228 10.1517,-6.1067 12.9521,-10.1517 2.9562,2.178 5.29,5.1342 7.0012,8.8682 1.7113,3.7339 2.5671,7.0011 2.5671,9.8016 0,2.8005 -0.8558,6.0677 -2.5671,9.8016 -1.7112,3.734 -4.045,6.6902 -7.0012,8.8682 -2.6447,-3.8897 -7.0011,-7.2736 -13.0688,-10.1517 -6.0677,-2.8781 -12.4464,-4.6284 -19.1365,-5.2509 l -11.4353,-0.9335 18.2031,7.2346 c 2.4894,0.9334 4.7841,1.9836 6.8844,3.1505 2.1004,1.1668 4.0841,2.4504 5.951,3.8506 3.8897,3.2672 5.8343,6.2234 5.8343,8.8682 0,2.0227 -1.1668,3.7339 -3.5005,5.1342 -0.7778,0.4667 -1.4779,0.7001 -2.1004,0.7001 -1.4002,0 -3.1505,-0.8945 -5.2509,-2.6838 -2.1003,-1.7893 -4.1616,-4.084 -6.1843,-6.8845 -2.9562,-3.7339 -7.1569,-7.0012 -12.6021,-9.8016 -6.6902,-3.1115 -13.6133,-5.8343 -20.7702,-8.168 6.8455,3.8896 11.8244,7.0011 14.9359,9.3348 4.5117,3.423 8.5571,7.3122 12.1353,11.6687 2.3337,2.8004 3.5006,5.9119 3.5006,9.3348 0,3.2673 -1.0111,5.2119 -3.0338,5.8343 -0.4668,0.1558 -0.9726,0.2725 -1.517,0.3501 -0.5443,0.0776 -0.8944,0.1167 -1.0501,0.1167 -4.6675,0 -7.857,-4.045 -9.5683,-12.1354 -1.2445,-2.0227 -2.4894,-4.0449 -3.7339,-6.0676 -2.3338,-3.423 -4.9399,-6.1844 -7.818,-8.2848 -2.8781,-2.1003 -5.6786,-3.773 -8.4014,-5.0175 -2.7228,-1.2445 -6.1844,-2.6447 -10.3851,-4.2007 -2.6447,-0.9334 -6.7287,-1.5945 -12.252,-1.9836 -5.5233,-0.3891 -11.1628,-0.5835 -16.9195,-0.5835 H 84.4137 56.6424 c -5.4452,0 -11.0852,0.7392 -16.9195,2.2171 -5.8343,1.4779 -9.9184,3.773 -12.2521,6.8845 H 22.57 C 18.9918,97.4679 15.8022,94.7451 13.0017,93.0338 10.2013,91.3226 6.7007,90.4667 2.5,90.4667 v -0.9334 c 4.045,0 7.507,-0.8168 10.3851,-2.4505 2.8781,-1.6336 6.1067,-4.395 9.6849,-8.2847 z"
   id="path29"
   inkscape:connector-curvature="0"
   style="fill:#1f1a17;stroke:#1f1a17;stroke-width:0.0762" />
 </g>
<path
   style="fill:#ffff00;stroke-width:0.78770387"
   d="m 45.679059,44.175279 c 0.974156,0.487257 2.633371,2.863401 3.713374,5.317861 6.175927,14.035774 10.386402,19.272721 19.467355,24.213239 10.306473,5.607264 16.067308,7.095988 31.878752,8.238151 20.99574,1.516665 52.79833,1.185558 60.50515,-0.629936 5.62733,-1.325626 12.65609,-4.542094 13.78243,-6.307044 0.87019,-1.363565 4.82892,-0.767044 6.34346,0.955858 2.90793,3.308007 9.19527,7.476871 12.73276,8.442557 l 3.61384,0.986531 -3.52409,0.907757 c -3.93516,1.013641 -8.76555,4.014159 -12.30556,7.643905 -2.60628,2.672352 -5.93954,3.150017 -7.60025,1.089144 -1.94969,-2.41948 -8.42164,-5.126741 -16.49676,-6.900705 -7.66617,-1.684124 -9.96055,-1.797075 -39.25749,-1.932632 l -31.115469,-0.14397 -7.125982,2.487016 c -8.448956,2.948737 -14.892045,6.135143 -18.913535,9.353619 -4.045347,3.23756 -9.701073,11.14185 -11.780424,16.46397 -2.766123,7.07993 -8.84587,10.57984 -12.264973,7.06054 -1.599298,-1.64616 -1.493208,-6.83983 0.204756,-10.02416 3.561253,-6.67872 12.548244,-14.526031 23.253302,-20.304485 3.127108,-1.687972 5.697555,-3.325831 5.712118,-3.639685 0.04127,-0.891103 -12.261677,3.580563 -20.327596,7.388283 -6.404652,3.023476 -8.084683,4.283037 -13.828251,10.367377 -7.742968,8.20238 -10.22419,9.54134 -13.306386,7.18066 -5.253491,-4.02371 -1.114013,-11.40647 9.25025,-16.49783 1.800488,-0.884477 7.86276,-3.357034 13.471708,-5.494573 5.608938,-2.137541 10.461401,-4.132701 10.78324,-4.433692 0.32184,-0.30099 -2.855244,-0.320252 -7.060158,-0.0428 -13.979555,0.922397 -26.298645,5.278473 -32.95349,11.652477 L 8.9771908,100.97667 6.4977731,98.069134 C 3.3271857,94.351104 1.0863168,88.933353 0.64619168,83.921728 0.20448477,78.892213 2.8061641,71.971308 6.7209091,67.761965 l 2.7924239,-3.002562 3.886222,3.596857 c 7.244591,6.705192 18.809498,11.049042 32.781366,12.31289 4.085899,0.369595 7.254439,0.479057 7.041202,0.243247 C 53.008895,80.676588 48.253324,78.583313 42.654186,76.260671 29.174635,70.669062 24.116285,67.8006 20.383015,63.631258 16.841414,59.67598 16.357584,56.37512 18.950242,53.856282 c 3.058979,-2.971892 6.89078,-1.419905 12.101552,4.90146 4.639832,5.62875 9.108278,9.467092 14.325895,12.305753 5.852437,3.184043 19.545627,8.842308 20.586969,8.5069 0.359489,-0.115789 -2.564065,-2.206761 -6.496807,-4.646602 C 51.25864,69.830855 40.039424,59.139111 38.267621,54.720278 35.076258,46.761119 39.178805,40.923996 45.679039,44.175279 Z"
   id="path73"
   inkscape:connector-curvature="0" /><path
   style="fill:#ffff00;stroke-width:0.78770387"
   d="m 148.12234,94.746195 c 6.12922,1.746244 14.73439,6.518125 18.21532,10.101055 4.60016,4.73497 3.72056,5.18095 -2.17467,1.1026 -5.71997,-3.9571 -7.85705,-4.74298 -16.62778,-6.114579 -13.66849,-2.137536 -29.9212,2.886589 -37.93086,11.725379 -4.79676,5.29331 -6.77488,10.89156 -6.89957,19.5264 -0.18283,12.66172 4.99065,22.02476 15.13814,27.39721 4.83529,2.55998 5.97203,2.84134 11.73463,2.90451 5.22083,0.0572 7.20742,-0.29903 10.92859,-1.95989 5.78669,-2.58276 11.87666,-8.44845 13.21527,-12.72861 1.47251,-4.70829 1.32526,-11.18785 -0.34093,-15.00278 -1.53816,-3.52179 -6.8363,-7.46136 -10.09775,-7.50846 -2.60762,-0.0376 -5.50414,3.4965 -6.16799,7.52581 -1.13494,6.88862 -6.60491,10.24558 -12.51003,7.6775 -3.12212,-1.35779 -5.96748,-5.39737 -5.92851,-8.41678 0.0136,-1.05453 0.76758,-3.39697 1.67549,-5.20542 4.26436,-8.49403 18.74721,-12.26724 28.2491,-7.35973 11.12546,5.74605 16.20067,21.00098 10.83619,32.57112 -6.41891,13.84433 -28.44397,21.03874 -44.6385,14.58101 -6.60474,-2.63371 -13.05802,-9.08466 -16.667546,-16.66153 -2.83996,-5.96147 -2.867826,-6.1206 -2.731043,-15.59304 l 0.138193,-9.5701 -7.940194,6.57448 c -4.367104,3.61596 -9.38198,7.20444 -11.14415,7.97439 -4.412709,1.92805 -12.17493,1.78694 -16.110281,-0.29288 -5.856352,-3.09506 -9.342497,-9.71401 -8.168472,-15.50905 0.70138,-3.46209 5.876554,-9.22261 10.194292,-11.34736 4.318524,-2.12513 11.016808,-1.89834 13.562274,0.45918 3.337368,3.09099 2.71105,8.44633 -1.217039,10.40627 -3.284212,1.63867 -4.355611,1.45357 -7.372926,-1.27382 -2.638638,-2.3851 -4.716509,-2.96376 -6.562646,-1.82761 -1.326253,0.81619 -3.334328,5.75613 -2.928856,7.20505 1.331396,4.75759 4.755813,7.15875 10.324133,7.23916 5.760799,0.0832 7.195146,-0.92644 30.063637,-21.16161 15.656874,-13.853965 27.083574,-19.075811 40.976264,-18.725593 2.64791,0.06675 6.65661,0.646224 8.90822,1.287721 z"
   id="path75"
   inkscape:connector-curvature="0" /><path
   style="fill:#ffff00;stroke-width:0.78770387"
   d="m 141.1018,2.3726918 c 9.28667,2.7912375 17.26339,9.1876572 20.36553,16.3308322 2.47856,5.707272 2.21357,14.942318 -0.59427,20.711078 -2.38575,4.901564 -6.78663,9.436415 -11.5069,11.857183 -4.58287,2.350295 -13.49569,2.137234 -19.09064,-0.45637 -7.81046,-3.620639 -12.00837,-11.174358 -9.16281,-16.487586 1.95499,-3.650384 4.24292,-5.134254 8.44452,-5.476824 3.51263,-0.286403 4.14502,-0.08287 6.14799,1.978794 1.57429,1.62043 2.36894,3.41198 2.69495,6.075835 0.97072,7.931843 3.81092,9.702536 10.50239,6.547622 5.20861,-2.455771 7.31894,-6.09465 7.43613,-12.822219 0.11927,-6.846572 -1.09816,-10.051594 -5.54953,-14.609771 -5.01891,-5.139331 -10.12932,-7.6565508 -16.89584,-8.3223492 -9.90425,-0.974535 -17.98161,2.8008432 -24.06717,11.2490462 -8.08384,11.222301 -7.8503,28.286362 0.52114,38.078344 6.10218,7.137651 20.1503,12.620877 32.80299,12.803583 8.89695,0.128473 15.12455,-1.439352 20.8961,-5.260687 2.57165,-1.702687 4.87011,-2.895705 5.1077,-2.651159 0.97377,1.002305 -6.10778,6.753377 -11.44684,9.296218 -5.81197,2.768072 -14.33562,4.893754 -19.33379,4.82158 -4.6084,-0.06655 -13.33321,-2.368352 -18.5134,-4.884255 C 111.98613,67.327394 106.41464,62.987177 92.921917,50.166614 75.586865,33.695144 70.632371,31.236971 63.197296,35.418805 c -4.134315,2.325329 -5.306205,7.293056 -2.603916,11.038124 2.146325,2.97458 4.269461,3.052463 7.525258,0.276043 1.527163,-1.302296 3.652786,-2.355164 4.723625,-2.339701 2.274883,0.03285 6.028033,3.319962 6.129566,5.368451 0.273317,5.513792 -1.71922,7.489698 -7.853486,7.787929 -3.962804,0.192663 -5.104795,-0.105017 -8.67484,-2.261558 -7.560389,-4.566878 -10.912267,-11.686796 -8.21382,-17.447425 3.799087,-8.110312 13.307976,-12.044047 21.882548,-9.05261 1.465441,0.511252 6.758404,4.132722 11.762149,8.047707 5.003744,3.914985 9.281682,7.120817 9.506529,7.124064 0.224837,0.0032 0.04157,-1.098645 -0.407298,-2.448636 -0.475203,-1.42924 -0.608675,-5.354967 -0.319528,-9.398063 0.632704,-8.846967 3.595587,-15.328953 9.978447,-21.830121 6.65801,-6.781415 11.9801,-8.8913514 22.57843,-8.9511826 4.97574,-0.02806 9.71442,0.3867128 11.89084,1.0408654 z"
   id="path77"
   inkscape:connector-curvature="0" /><path
   style="fill:#d4aa00;stroke-width:2.97714853"
   d="m 502.87208,282.80184 c -46.86541,-7.89657 -76.85856,-26.31393 -145.66062,-89.44325 -55.78433,-51.18489 -77.66545,-66.68432 -94.14074,-66.68432 -34.48362,0 -53.10557,32.72715 -30.63413,53.83797 l 7.61707,7.15587 17.63212,-9.76751 c 18.46182,-10.22713 22.63392,-10.09542 33.79626,1.06692 6.04432,6.04432 6.05842,23.32675 0.0241,29.36121 -10.99644,10.99628 -39.4154,9.79039 -57.92376,-2.45787 -38.58193,-25.53231 -39.5749,-67.4096 -2.11882,-89.35879 30.64692,-17.959034 49.33397,-13.70652 97.44166,22.17428 19.68236,14.67996 36.90511,26.69085 38.27277,26.69085 1.36766,0 1.47763,-6.36366 0.24439,-14.14146 -1.23324,-7.7778 -1.02414,-24.18933 0.46467,-36.47007 3.83303,-31.617484 15.66122,-54.177419 40.87694,-77.964645 27.13794,-25.600555 41.03261,-30.0824758 89.03545,-28.7196223 32.2132,0.914569 36.70324,1.7720812 55.23045,10.5480123 26.89476,12.739443 50.08472,35.893295 57.09838,57.009459 7.1152,21.421837 5.42046,53.496336 -3.82805,72.449466 -8.78768,18.00872 -27.42808,37.12732 -43.1652,44.27258 -42.2497,19.183 -106.18911,-9.41083 -106.18911,-47.48796 0,-19.69901 10.30654,-30.78144 32.0414,-34.45352 11.29787,-1.90876 13.4274,-1.25452 21.19296,6.51104 5.97103,5.97102 9.73379,13.93545 12.20292,25.82909 4.58897,22.10499 11.92616,29.84101 26.11822,27.53795 14.97709,-2.43044 33.2374,-15.50976 38.18482,-27.35065 2.32724,-5.56989 4.23136,-19.60148 4.23136,-31.18133 0,-25.405522 -5.63934,-38.097115 -24.75886,-55.720867 C 545.3166,36.833048 530.62017,30.581247 502.69604,29.047867 469.87958,27.245839 453.03335,33.027449 430.60966,53.787828 394.73828,86.998399 382.4072,139.07201 399.04897,187.06722 c 13.38495,38.60246 63.5269,69.50951 123.68825,76.24033 33.1047,3.70374 61.6883,-0.35516 85.88017,-12.19505 10.733,-5.25292 20.8543,-10.1296 22.49173,-10.83707 1.63743,-0.70747 -0.19054,2.16138 -4.06214,6.37522 -3.87164,4.21384 -15.92909,12.31185 -26.79434,17.99557 -33.81222,17.68747 -65.30837,23.55961 -97.38056,18.15562 z"
   id="path60"
   inkscape:connector-curvature="0"
   transform="scale(0.26458332)" /><path
   style="fill:#d4aa00;stroke-width:2.97714853"
   d="m 143.06942,458.41367 c -6.12101,-6.12101 -5.95741,-22.92017 0.35595,-36.55177 6.98152,-15.07424 40.04283,-46.98164 64.96055,-62.69327 11.44448,-7.21621 26.14956,-16.4884 32.67796,-20.60487 18.12532,-11.42889 8.25657,-10.94268 -24.241,1.1943 -51.28283,19.15278 -67.70841,28.98637 -97.04023,58.09561 -31.111496,30.87542 -38.64263,34.26507 -49.105253,22.10154 -9.110842,-10.59198 -7.158708,-19.90548 7.29834,-34.81989 13.238105,-13.65691 33.752183,-24.48132 80.483383,-42.46767 20.04331,-7.71447 37.33728,-15.47427 38.43103,-17.244 3.08738,-4.99547 -49.9758,-0.52255 -77.38072,6.52276 -27.763569,7.13751 -55.769399,20.79641 -71.185705,34.71842 -6.145085,5.54945 -12.275209,10.08991 -13.622497,10.08991 -4.15893,0 -14.400848,-12.75342 -21.344709,-26.57882 -14.6610552,-29.19051 -10.216559,-63.88541 11.559649,-90.23763 11.504765,-13.92236 11.544031,-13.94046 17.048296,-7.85832 18.898394,20.88249 58.595266,40.74157 96.426576,48.23914 30.23454,5.99201 62.52012,9.01138 62.52012,5.84692 0,-1.42352 -12.39238,-7.77648 -27.53862,-14.11769 -67.81502,-28.39182 -100.451543,-49.6555 -105.189836,-68.53436 -2.454569,-9.77979 -0.257434,-15.01466 8.789939,-20.94272 6.686202,-4.38097 8.205319,-4.40411 16.243355,-0.24749 4.877033,2.52201 17.274042,14.04453 27.548902,25.60559 10.27486,11.56106 26.3011,26.10824 35.61387,32.32706 14.99189,10.0112 67.31049,34.73284 85.46818,40.38551 13.27339,4.13213 6.22124,-3.52066 -19.08499,-20.7105 -31.56948,-21.44429 -70.68028,-58.95052 -76.83633,-73.684 -11.65479,-27.89386 2.99163,-49.78616 25.3151,-37.839 3.11515,1.66717 13.33837,18.0787 22.71828,36.47006 22.46817,44.05378 40.54568,62.61711 78.93527,81.05662 32.96833,15.83555 55.39864,20.90492 111.17341,25.12577 51.94659,3.93115 166.51432,4.02669 203.12762,0.1694 28.07454,-2.95772 55.62921,-11.99288 71.8929,-23.57366 11.81371,-8.41211 16.31995,-7.81614 29.32244,3.878 15.41443,13.86337 39.37999,28.62657 46.73724,28.79092 3.60006,0.0804 -1.23209,3.62164 -11.74717,8.60885 -9.82459,4.65973 -24.37243,13.97627 -32.3285,20.70342 -16.67792,14.10177 -22.48497,14.94415 -35.60026,5.16424 -5.2124,-3.88682 -16.96924,-9.81771 -26.1263,-13.17975 -36.49886,-13.40068 -55.87857,-15.27252 -178.69012,-17.25926 l -117.26127,-1.89695 -28.42712,10.42423 c -69.34634,25.42932 -94.4789,46.60992 -120.344,101.42055 -11.48925,24.34681 -30.36249,35.29404 -41.55373,24.1028 z"
   id="path62"
   inkscape:connector-curvature="0"
   transform="scale(0.26458332)" /><path
   style="fill:#ffcc00;stroke-width:2.97714853"
   d="m 445.88892,628.4704 c -31.91916,-9.97549 -57.17536,-33.30783 -74.18824,-68.53704 -9.70849,-20.10374 -10.0235,-21.90472 -10.0235,-57.30602 v -36.54998 l -31.71143,25.17665 c -38.89556,30.88035 -45.95742,34.35815 -69.76588,34.35815 -32.29699,0 -56.82688,-18.24848 -61.2612,-45.57395 -2.5546,-15.7422 0.73918,-24.66657 14.72626,-39.90014 19.71168,-21.46834 42.97343,-29.37951 63.47137,-21.58621 17.09822,6.50074 21.36281,24.62875 8.75892,37.23264 -9.66449,9.66448 -17.34433,9.21612 -32.84792,-1.91772 -14.96478,-10.74689 -23.02428,-9.84638 -29.84018,3.33411 -19.18521,37.10011 28.86884,63.11851 67.26611,36.42059 7.23225,-5.02865 35.07984,-28.02538 61.88352,-51.10385 59.53664,-51.26216 82.96066,-67.12524 115.86932,-78.46837 23.34362,-8.0462 28.02647,-8.6588 58.40496,-7.64032 31.65745,1.06135 34.07555,1.61968 58.33229,13.46876 22.74821,11.11219 52.72824,32.54705 49.72403,35.55125 -0.6447,0.64471 -10.4762,-4.21442 -21.84774,-10.79806 -21.55274,-12.47811 -53.82878,-20.8533 -80.36381,-20.8533 -20.12305,0 -56.68382,8.42638 -77.48658,17.8588 -22.68535,10.28603 -46.75725,32.18316 -56.48682,51.38353 -9.20941,18.1739 -13.34763,50.22896 -9.75731,75.58116 5.29276,37.37366 25.49191,65.56473 59.7451,83.38363 13.96168,7.26302 19.16298,8.26689 42.69295,8.23988 31.02159,-0.0356 45.56782,-5.52823 68.80142,-25.97928 18.29747,-16.10607 24.83055,-30.92111 24.91338,-56.49591 0.0831,-25.66527 -5.20144,-38.14818 -20.99232,-49.58702 -22.52151,-16.3145 -39.99904,-9.05805 -47.21612,19.60353 -4.43547,17.61492 -17.30313,30.8234 -30.02801,30.8234 -18.50114,0 -35.68696,-16.72403 -35.6546,-34.69656 0.0185,-10.226 10.42267,-28.03716 21.37538,-36.59275 20.98127,-16.38927 61.96485,-20.6784 86.66157,-9.06956 38.46217,18.07935 59.38346,70.6187 45.16576,113.42415 -6.4525,19.4267 -31.39472,45.71659 -52.84695,55.7024 -32.27404,15.02326 -77.66104,19.80553 -105.47373,11.11341 z"
   id="path64"
   inkscape:connector-curvature="0"
   transform="scale(0.26458332)" /><path
   style="fill:#ffcc00;stroke-width:2.97714853"
   d="m 146.91049,460.03806 c -7.07462,-4.0963 -9.17996,-16.17931 -5.3231,-30.55048 4.53951,-16.91482 42.609,-54.22788 79.41952,-77.84148 15.14625,-9.71617 27.53863,-18.61877 27.53863,-19.78356 0,-2.01946 -30.61979,6.36414 -43.16866,11.81943 -3.27486,1.42366 -11.95167,5.09336 -19.2818,8.15489 -21.13229,8.82619 -45.13409,25.56834 -71.62198,49.95901 -25.652895,23.62178 -33.786018,26.89531 -42.606475,17.14881 -16.956513,-18.73673 10.708839,-45.24195 73.277045,-70.20422 6.17009,-2.46163 11.89705,-4.47774 12.72659,-4.48024 0.82953,-0.003 5.15929,-1.95032 9.62169,-4.32847 4.4624,-2.37814 13.13739,-6.5163 19.27776,-9.1959 6.14036,-2.6796 11.1643,-5.66324 11.1643,-6.63031 0,-1.73217 -40.8236,0.87942 -63.95666,4.09148 -20.0999,2.7909 -56.383549,18.32975 -78.702975,33.70536 l -21.27782,14.65807 -6.160936,-6.16094 C 24.447106,367.011 18.23417,356.7235 14.029097,347.53841 0.32082981,317.59561 5.4364868,284.47627 27.931841,257.53046 l 8.485439,-10.16419 12.741386,11.51108 c 13.043831,11.78432 59.813264,35.7573 75.835214,38.87146 72.11497,14.01688 92.30575,12.69521 54.33296,-3.55659 -87.278775,-37.35405 -125.198822,-68.36919 -106.478405,-87.0896 9.618917,-9.61892 17.103989,-7.26335 36.773095,11.57256 38.00555,36.39563 45.21227,41.62862 83.62681,60.72371 21.66495,10.76921 43.30468,20.55563 48.08829,21.74759 7.97939,1.98828 8.34828,1.74345 4.468,-2.96527 -2.32622,-2.82286 -16.47529,-14.33662 -31.44236,-25.58613 -35.65295,-26.79735 -65.77552,-58.71786 -69.91399,-74.08697 -5.20777,-19.34019 4.57028,-35.59237 19.20422,-31.91948 7.84614,1.96925 12.41407,8.18861 36.13502,49.19876 19.46964,33.66025 39.68215,53.19753 70.36228,68.01172 53.2773,25.72544 78.0417,28.94694 222.52191,28.94694 103.4036,0 125.60238,-2.71902 156.41158,-19.15803 24.16102,-12.8917 23.0649,-12.97878 46.57428,3.69992 11.98385,8.50196 25.57299,17.4126 30.19802,19.80144 7.92546,4.0935 8.09671,4.57782 2.97715,8.42021 -2.9876,2.24229 -10.79089,6.84116 -17.34061,10.21971 -6.54973,3.37855 -16.56792,9.97226 -22.26264,14.65269 -13.48878,11.08623 -22.53699,10.75196 -45.36502,-1.67596 -29.35174,-15.97953 -41.83775,-18.50073 -111.71958,-22.55866 -77.75121,-4.5149 -199.98825,-3.85611 -214.18943,1.15435 -68.86911,24.29844 -104.69355,51.07938 -128.62957,96.15843 -17.30251,32.58607 -30.15995,43.67397 -42.4154,36.57791 z"
   id="path66"
   inkscape:connector-curvature="0"
   transform="scale(0.26458332)" /><path
   style="fill:#ffcc00;stroke-width:2.97714853"
   d="m 493.29283,279.92259 c -38.47751,-8.35517 -66.0454,-25.3806 -122.6846,-75.76783 -83.80944,-74.55835 -100.32097,-84.15681 -126.18146,-73.3516 -22.58956,9.43852 -28.22981,32.78624 -12.01017,49.71591 8.02043,8.37152 8.1578,8.39763 15.83122,3.00991 4.25732,-2.9892 12.65138,-7.1847 18.65345,-9.32334 9.42208,-3.35726 11.91402,-3.23247 18.24153,0.91347 16.10365,10.55152 12.50794,32.45168 -6.25091,38.07197 -25.99475,7.78821 -64.76415,-14.88954 -72.11321,-42.18187 -5.91479,-21.96584 6.59883,-44.73624 31.34684,-57.04025 27.7305,-13.78682 42.34544,-9.01264 102.71162,33.55225 l 25.30576,17.84339 1.67143,-30.50947 c 0.92166,-16.82353 4.03905,-37.536467 6.94945,-46.174443 10.38047,-30.808828 46.03785,-67.793966 72.88824,-75.60234 8.76927,-2.550195 26.55744,-3.7814931 49.04626,-3.3949851 32.25296,0.5543221 36.91723,1.3695191 54.25356,9.4821581 23.22187,10.866822 46.39853,31.992831 55.32277,50.427817 8.3634,17.276505 9.06151,54.974463 1.35606,73.225703 -7.04301,16.68207 -23.91832,36.18129 -38.92229,44.9742 -34.30383,20.10339 -90.00804,5.75691 -106.01214,-27.30316 -12.01123,-24.81187 -0.71543,-45.36585 26.36144,-47.96759 13.34907,-1.28267 15.04786,-0.66916 22.42577,8.09898 4.39043,5.21774 7.9826,11.28251 7.9826,13.47727 0,8.53354 11.84973,31.03747 18.10636,34.38591 14.17733,7.58748 44.99653,-11.17241 50.63129,-30.81966 3.57684,-12.47168 3.42497,-36.59414 -0.3151,-50.058854 C 583.81973,72.957869 565.42596,52.928206 544.48371,40.340995 527.58905,30.186573 526.3658,29.925586 495.77134,29.947882 c -30.4088,0.02216 -31.86663,0.329637 -46.98424,9.90963 -19.87621,12.595502 -34.42073,29.610001 -46.21913,54.068122 -8.27832,17.160986 -9.35173,22.384426 -9.48286,46.145796 -0.23207,42.04865 4.54205,55.61268 27.7009,78.70278 23.45604,23.38641 56.99863,38.64514 95.83034,43.59381 36.62134,4.66698 64.70317,0.97211 93.81439,-12.34365 9.22561,-4.21988 17.36835,-7.07799 18.09502,-6.35134 2.24837,2.24839 -28.04748,20.38805 -46.49717,27.8402 -32.70487,13.21009 -56.32059,15.44811 -88.73576,8.40936 z"
   id="path68"
   inkscape:connector-curvature="0"
   transform="scale(0.26458332)" /></svg>